<?xml version="1.0" encoding="UTF-8" standalone="no"?>
<!DOCTYPE svg PUBLIC "-//W3C//DTD SVG 1.1//EN"
 "http://www.w3.org/Graphics/SVG/1.1/DTD/svg11.dtd">
<!-- Generated by graphviz version 2.38.0 (20140413.2041)
 -->
<!-- Title: %3 Pages: 1 -->
<svg width="2386pt" height="602pt"
 viewBox="0.00 0.00 2386.08 601.87" xmlns="http://www.w3.org/2000/svg" xmlns:xlink="http://www.w3.org/1999/xlink">
<g id="graph0" class="graph" transform="scale(1 1) rotate(0) translate(4 597.87)">
<title>%3</title>
<polygon fill="white" stroke="none" points="-4,4 -4,-597.87 2382.08,-597.87 2382.08,4 -4,4"/>
<!-- 0 -->
<g id="node1" class="node"><title>0</title>
<ellipse fill="#ffe0b0" stroke="black" cx="2146.21" cy="-567" rx="112.36" ry="26.7407"/>
<text text-anchor="middle" x="2146.21" y="-570.8" font-family="Times,serif" font-size="14.00">DEFINE_GLOBAL data0</text>
<text text-anchor="middle" x="2146.21" y="-555.8" font-family="Times,serif" font-size="14.00">ptr.dtypes.float</text>
</g>
<!-- 26 -->
<g id="node26" class="node"><title>26</title>
<ellipse fill="#c0ffc0" stroke="black" cx="2336.36" cy="-512" rx="41.9398" ry="26.7407"/>
<text text-anchor="middle" x="2336.36" y="-515.8" font-family="Times,serif" font-size="14.00">STORE</text>
<text text-anchor="middle" x="2336.36" y="-500.8" font-family="Times,serif" font-size="14.00">None</text>
</g>
<!-- 0&#45;&gt;26 -->
<g id="edge1" class="edge"><title>0&#45;&gt;26</title>
<path fill="none" stroke="black" d="M2218.08,-546.285C2241.55,-539.424 2267.08,-531.962 2288.3,-525.757"/>
<polygon fill="black" stroke="black" points="2289.42,-529.076 2298.04,-522.91 2287.46,-522.357 2289.42,-529.076"/>
</g>
<!-- 1 -->
<g id="node2" class="node"><title>1</title>
<ellipse fill="#ffe0b0" stroke="black" cx="414.947" cy="-158" rx="112.36" ry="26.7407"/>
<text text-anchor="middle" x="414.947" y="-161.8" font-family="Times,serif" font-size="14.00">DEFINE_GLOBAL data1</text>
<text text-anchor="middle" x="414.947" y="-146.8" font-family="Times,serif" font-size="14.00">ptr.dtypes.float</text>
</g>
<!-- 12 -->
<g id="node13" class="node"><title>12</title>
<ellipse fill="#ffc0c0" stroke="black" cx="662.372" cy="-203" rx="56.6372" ry="26.7407"/>
<text text-anchor="middle" x="662.372" y="-206.8" font-family="Times,serif" font-size="14.00">LOAD</text>
<text text-anchor="middle" x="662.372" y="-191.8" font-family="Times,serif" font-size="14.00">dtypes.float</text>
</g>
<!-- 1&#45;&gt;12 -->
<g id="edge2" class="edge"><title>1&#45;&gt;12</title>
<path fill="none" stroke="black" d="M504.551,-174.246C535.993,-180.011 570.681,-186.371 599.421,-191.641"/>
<polygon fill="black" stroke="black" points="598.856,-195.096 609.323,-193.457 600.119,-188.21 598.856,-195.096"/>
</g>
<!-- 14 -->
<g id="node15" class="node"><title>14</title>
<ellipse fill="#ffc0c0" stroke="black" cx="896.362" cy="-182" rx="56.6372" ry="26.7407"/>
<text text-anchor="middle" x="896.362" y="-185.8" font-family="Times,serif" font-size="14.00">LOAD</text>
<text text-anchor="middle" x="896.362" y="-170.8" font-family="Times,serif" font-size="14.00">dtypes.float</text>
</g>
<!-- 1&#45;&gt;14 -->
<g id="edge3" class="edge"><title>1&#45;&gt;14</title>
<path fill="none" stroke="black" d="M501.349,-140.718C571.615,-129.21 673.564,-118.748 761.367,-134 765.664,-134.747 805.998,-149.277 841.3,-162.156"/>
<polygon fill="black" stroke="black" points="840.496,-165.588 851.09,-165.732 842.898,-159.013 840.496,-165.588"/>
</g>
<!-- 16 -->
<g id="node17" class="node"><title>16</title>
<ellipse fill="#ffc0c0" stroke="black" cx="896.362" cy="-254" rx="56.6372" ry="26.7407"/>
<text text-anchor="middle" x="896.362" y="-257.8" font-family="Times,serif" font-size="14.00">LOAD</text>
<text text-anchor="middle" x="896.362" y="-242.8" font-family="Times,serif" font-size="14.00">dtypes.float</text>
</g>
<!-- 1&#45;&gt;16 -->
<g id="edge4" class="edge"><title>1&#45;&gt;16</title>
<path fill="none" stroke="black" d="M523.305,-150.479C609.175,-146.343 721.56,-145.712 761.367,-167 785.833,-180.084 775.348,-201.119 797.367,-218 808.71,-226.696 822.363,-233.451 835.827,-238.635"/>
<polygon fill="black" stroke="black" points="834.968,-242.046 845.562,-242.138 837.338,-235.459 834.968,-242.046"/>
</g>
<!-- 18 -->
<g id="node19" class="node"><title>18</title>
<ellipse fill="#ffc0c0" stroke="black" cx="896.362" cy="-326" rx="56.6372" ry="26.7407"/>
<text text-anchor="middle" x="896.362" y="-329.8" font-family="Times,serif" font-size="14.00">LOAD</text>
<text text-anchor="middle" x="896.362" y="-314.8" font-family="Times,serif" font-size="14.00">dtypes.float</text>
</g>
<!-- 1&#45;&gt;18 -->
<g id="edge5" class="edge"><title>1&#45;&gt;18</title>
<path fill="none" stroke="black" d="M479.254,-180.091C495.53,-186.992 512.605,-195.364 527.377,-205 545.81,-217.024 543.788,-228.97 563.377,-239 643.131,-279.837 675.014,-253.092 761.367,-277 763.503,-277.592 805.178,-292.854 841.489,-306.189"/>
<polygon fill="black" stroke="black" points="840.469,-309.543 851.062,-309.706 842.883,-302.972 840.469,-309.543"/>
</g>
<!-- 2 -->
<g id="node3" class="node"><title>2</title>
<ellipse fill="#f0ffe0" stroke="black" cx="662.372" cy="-55" rx="84.7059" ry="26.7407"/>
<text text-anchor="middle" x="662.372" y="-58.8" font-family="Times,serif" font-size="14.00">DEFINE_ACC 0.0</text>
<text text-anchor="middle" x="662.372" y="-43.8" font-family="Times,serif" font-size="14.00">dtypes.float</text>
</g>
<!-- 19 -->
<g id="node20" class="node"><title>19</title>
<ellipse fill="#ffffc0" stroke="black" cx="896.362" cy="-110" rx="98.9899" ry="26.7407"/>
<text text-anchor="middle" x="896.362" y="-113.8" font-family="Times,serif" font-size="14.00">ALU BinaryOps.ADD</text>
<text text-anchor="middle" x="896.362" y="-98.8" font-family="Times,serif" font-size="14.00">dtypes.float</text>
</g>
<!-- 2&#45;&gt;19 -->
<g id="edge6" class="edge"><title>2&#45;&gt;19</title>
<path fill="none" stroke="black" d="M730.784,-70.9822C755.933,-76.9444 784.8,-83.7882 811.266,-90.0626"/>
<polygon fill="black" stroke="black" points="810.741,-93.5351 821.278,-92.4364 812.355,-86.7239 810.741,-93.5351"/>
</g>
<!-- 23 -->
<g id="node24" class="node"><title>23</title>
<ellipse fill="#e0ffc0" stroke="black" cx="1865.56" cy="-115" rx="56.6372" ry="26.7407"/>
<text text-anchor="middle" x="1865.56" y="-118.8" font-family="Times,serif" font-size="14.00">PHI</text>
<text text-anchor="middle" x="1865.56" y="-103.8" font-family="Times,serif" font-size="14.00">dtypes.float</text>
</g>
<!-- 2&#45;&gt;23 -->
<g id="edge7" class="edge"><title>2&#45;&gt;23</title>
<path fill="none" stroke="black" d="M747.552,-55C840.875,-55 995.868,-55 1129.35,-55 1129.35,-55 1129.35,-55 1365.34,-55 1524.1,-55 1709.25,-85.2836 1803.16,-102.821"/>
<polygon fill="black" stroke="black" points="1802.58,-106.274 1813.06,-104.686 1803.88,-99.3949 1802.58,-106.274"/>
</g>
<!-- 3 -->
<g id="node4" class="node"><title>3</title>
<ellipse fill="#e0e0e0" stroke="black" cx="65.0538" cy="-448" rx="50.41" ry="26.7407"/>
<text text-anchor="middle" x="65.0538" y="-451.8" font-family="Times,serif" font-size="14.00">CONST 0</text>
<text text-anchor="middle" x="65.0538" y="-436.8" font-family="Times,serif" font-size="14.00">dtypes.int</text>
</g>
<!-- 10 -->
<g id="node11" class="node"><title>10</title>
<ellipse fill="#c8a0e0" stroke="black" cx="216.312" cy="-277" rx="49.4949" ry="26.7407"/>
<text text-anchor="middle" x="216.312" y="-280.8" font-family="Times,serif" font-size="14.00">LOOP</text>
<text text-anchor="middle" x="216.312" y="-265.8" font-family="Times,serif" font-size="14.00">dtypes.int</text>
</g>
<!-- 3&#45;&gt;10 -->
<g id="edge8" class="edge"><title>3&#45;&gt;10</title>
<path fill="none" stroke="black" d="M81.5579,-422.591C99.6948,-394.047 131.656,-347.24 166.108,-313 169.276,-309.851 172.737,-306.762 176.308,-303.799"/>
<polygon fill="black" stroke="black" points="178.555,-306.484 184.231,-297.538 174.215,-300.992 178.555,-306.484"/>
</g>
<!-- 3&#45;&gt;26 -->
<g id="edge9" class="edge"><title>3&#45;&gt;26</title>
<path fill="none" stroke="black" d="M108.975,-461.106C174.201,-479.83 302.485,-512 413.947,-512 413.947,-512 413.947,-512 1866.56,-512 2018.68,-512 2198.56,-512 2284.59,-512"/>
<polygon fill="black" stroke="black" points="2284.6,-515.5 2294.6,-512 2284.6,-508.5 2284.6,-515.5"/>
</g>
<!-- 4 -->
<g id="node5" class="node"><title>4</title>
<ellipse fill="#e0e0e0" stroke="black" cx="65.0538" cy="-277" rx="65.1077" ry="26.7407"/>
<text text-anchor="middle" x="65.0538" y="-280.8" font-family="Times,serif" font-size="14.00">CONST 1024</text>
<text text-anchor="middle" x="65.0538" y="-265.8" font-family="Times,serif" font-size="14.00">dtypes.int</text>
</g>
<!-- 4&#45;&gt;10 -->
<g id="edge10" class="edge"><title>4&#45;&gt;10</title>
<path fill="none" stroke="black" d="M130.219,-277C138.87,-277 147.712,-277 156.267,-277"/>
<polygon fill="black" stroke="black" points="156.53,-280.5 166.53,-277 156.53,-273.5 156.53,-280.5"/>
</g>
<!-- 5 -->
<g id="node6" class="node"><title>5</title>
<ellipse fill="#e0e0e0" stroke="black" cx="216.312" cy="-349" rx="50.41" ry="26.7407"/>
<text text-anchor="middle" x="216.312" y="-352.8" font-family="Times,serif" font-size="14.00">CONST 4</text>
<text text-anchor="middle" x="216.312" y="-337.8" font-family="Times,serif" font-size="14.00">dtypes.int</text>
</g>
<!-- 11 -->
<g id="node12" class="node"><title>11</title>
<ellipse fill="#ffffc0" stroke="black" cx="414.947" cy="-313" rx="99.9045" ry="26.7407"/>
<text text-anchor="middle" x="414.947" y="-316.8" font-family="Times,serif" font-size="14.00">ALU BinaryOps.MUL</text>
<text text-anchor="middle" x="414.947" y="-301.8" font-family="Times,serif" font-size="14.00">dtypes.int</text>
</g>
<!-- 5&#45;&gt;11 -->
<g id="edge11" class="edge"><title>5&#45;&gt;11</title>
<path fill="none" stroke="black" d="M264.411,-340.377C281.712,-337.21 301.949,-333.505 321.845,-329.862"/>
<polygon fill="black" stroke="black" points="322.678,-333.268 331.884,-328.024 321.417,-326.382 322.678,-333.268"/>
</g>
<!-- 6 -->
<g id="node7" class="node"><title>6</title>
<ellipse fill="#e0e0e0" stroke="black" cx="414.947" cy="-241" rx="50.41" ry="26.7407"/>
<text text-anchor="middle" x="414.947" y="-244.8" font-family="Times,serif" font-size="14.00">CONST 1</text>
<text text-anchor="middle" x="414.947" y="-229.8" font-family="Times,serif" font-size="14.00">dtypes.int</text>
</g>
<!-- 13 -->
<g id="node14" class="node"><title>13</title>
<ellipse fill="#ffffc0" stroke="black" cx="662.372" cy="-313" rx="98.9899" ry="26.7407"/>
<text text-anchor="middle" x="662.372" y="-316.8" font-family="Times,serif" font-size="14.00">ALU BinaryOps.ADD</text>
<text text-anchor="middle" x="662.372" y="-301.8" font-family="Times,serif" font-size="14.00">dtypes.int</text>
</g>
<!-- 6&#45;&gt;13 -->
<g id="edge12" class="edge"><title>6&#45;&gt;13</title>
<path fill="none" stroke="black" d="M459.259,-253.706C493.911,-263.872 543.366,-278.381 584.682,-290.502"/>
<polygon fill="black" stroke="black" points="583.869,-293.911 594.45,-293.367 585.84,-287.194 583.869,-293.911"/>
</g>
<!-- 7 -->
<g id="node8" class="node"><title>7</title>
<ellipse fill="#e0e0e0" stroke="black" cx="414.947" cy="-385" rx="50.41" ry="26.7407"/>
<text text-anchor="middle" x="414.947" y="-388.8" font-family="Times,serif" font-size="14.00">CONST 2</text>
<text text-anchor="middle" x="414.947" y="-373.8" font-family="Times,serif" font-size="14.00">dtypes.int</text>
</g>
<!-- 15 -->
<g id="node16" class="node"><title>15</title>
<ellipse fill="#ffffc0" stroke="black" cx="662.372" cy="-385" rx="98.9899" ry="26.7407"/>
<text text-anchor="middle" x="662.372" y="-388.8" font-family="Times,serif" font-size="14.00">ALU BinaryOps.ADD</text>
<text text-anchor="middle" x="662.372" y="-373.8" font-family="Times,serif" font-size="14.00">dtypes.int</text>
</g>
<!-- 7&#45;&gt;15 -->
<g id="edge13" class="edge"><title>7&#45;&gt;15</title>
<path fill="none" stroke="black" d="M465.317,-385C490.532,-385 522.273,-385 552.826,-385"/>
<polygon fill="black" stroke="black" points="553.131,-388.5 563.131,-385 553.131,-381.5 553.131,-388.5"/>
</g>
<!-- 8 -->
<g id="node9" class="node"><title>8</title>
<ellipse fill="#e0e0e0" stroke="black" cx="414.947" cy="-457" rx="50.41" ry="26.7407"/>
<text text-anchor="middle" x="414.947" y="-460.8" font-family="Times,serif" font-size="14.00">CONST 3</text>
<text text-anchor="middle" x="414.947" y="-445.8" font-family="Times,serif" font-size="14.00">dtypes.int</text>
</g>
<!-- 17 -->
<g id="node18" class="node"><title>17</title>
<ellipse fill="#ffffc0" stroke="black" cx="662.372" cy="-457" rx="98.9899" ry="26.7407"/>
<text text-anchor="middle" x="662.372" y="-460.8" font-family="Times,serif" font-size="14.00">ALU BinaryOps.ADD</text>
<text text-anchor="middle" x="662.372" y="-445.8" font-family="Times,serif" font-size="14.00">dtypes.int</text>
</g>
<!-- 8&#45;&gt;17 -->
<g id="edge14" class="edge"><title>8&#45;&gt;17</title>
<path fill="none" stroke="black" d="M465.317,-457C490.532,-457 522.273,-457 552.826,-457"/>
<polygon fill="black" stroke="black" points="553.131,-460.5 563.131,-457 553.131,-453.5 553.131,-460.5"/>
</g>
<!-- 9 -->
<g id="node10" class="node"><title>9</title>
<ellipse fill="#e0e0e0" stroke="black" cx="1865.56" cy="-322" rx="132.458" ry="26.7407"/>
<text text-anchor="middle" x="1865.56" y="-325.8" font-family="Times,serif" font-size="14.00">CONST 9.5367431640625e&#45;07</text>
<text text-anchor="middle" x="1865.56" y="-310.8" font-family="Times,serif" font-size="14.00">dtypes.float</text>
</g>
<!-- 25 -->
<g id="node25" class="node"><title>25</title>
<ellipse fill="#ffffc0" stroke="black" cx="2146.21" cy="-322" rx="99.9045" ry="26.7407"/>
<text text-anchor="middle" x="2146.21" y="-325.8" font-family="Times,serif" font-size="14.00">ALU BinaryOps.MUL</text>
<text text-anchor="middle" x="2146.21" y="-310.8" font-family="Times,serif" font-size="14.00">dtypes.float</text>
</g>
<!-- 9&#45;&gt;25 -->
<g id="edge15" class="edge"><title>9&#45;&gt;25</title>
<path fill="none" stroke="black" d="M1998.13,-322C2010.79,-322 2023.54,-322 2035.95,-322"/>
<polygon fill="black" stroke="black" points="2036.29,-325.5 2046.29,-322 2036.29,-318.5 2036.29,-325.5"/>
</g>
<!-- 10&#45;&gt;11 -->
<g id="edge16" class="edge"><title>10&#45;&gt;11</title>
<path fill="none" stroke="black" d="M263.414,-285.44C280.974,-288.655 301.663,-292.443 321.989,-296.164"/>
<polygon fill="black" stroke="black" points="321.455,-299.625 331.922,-297.983 322.716,-292.739 321.455,-299.625"/>
</g>
<!-- 10&#45;&gt;23 -->
<g id="edge17" class="edge"><title>10&#45;&gt;23</title>
<path fill="none" stroke="black" d="M225.597,-250.349C237.469,-216.231 262.422,-157.317 302.517,-122 428.928,-10.6547 492.916,-0 661.372,-0 661.372,-0 661.372,-0 1365.34,-0 1531.82,-0 1721.73,-61.4802 1811.81,-94.5356"/>
<polygon fill="black" stroke="black" points="1810.66,-97.8419 1821.26,-98.0314 1813.09,-91.2773 1810.66,-97.8419"/>
</g>
<!-- 11&#45;&gt;12 -->
<g id="edge18" class="edge"><title>11&#45;&gt;12</title>
<path fill="none" stroke="black" d="M483.598,-293.445C498.231,-288.581 513.477,-283.017 527.377,-277 558.9,-263.354 592.752,-244.622 618.543,-229.42"/>
<polygon fill="black" stroke="black" points="620.507,-232.324 627.312,-224.204 616.929,-226.307 620.507,-232.324"/>
</g>
<!-- 11&#45;&gt;13 -->
<g id="edge19" class="edge"><title>11&#45;&gt;13</title>
<path fill="none" stroke="black" d="M514.71,-313C527.322,-313 540.285,-313 553.038,-313"/>
<polygon fill="black" stroke="black" points="553.21,-316.5 563.21,-313 553.21,-309.5 553.21,-316.5"/>
</g>
<!-- 11&#45;&gt;15 -->
<g id="edge20" class="edge"><title>11&#45;&gt;15</title>
<path fill="none" stroke="black" d="M483.01,-332.674C514.393,-341.881 551.938,-352.895 584.467,-362.439"/>
<polygon fill="black" stroke="black" points="583.808,-365.893 594.389,-365.349 585.779,-359.176 583.808,-365.893"/>
</g>
<!-- 11&#45;&gt;17 -->
<g id="edge21" class="edge"><title>11&#45;&gt;17</title>
<path fill="none" stroke="black" d="M494.176,-329.418C506.166,-334.336 517.739,-340.719 527.377,-349 554.513,-372.316 536.707,-397.152 563.377,-421 568.811,-425.859 574.956,-430.08 581.455,-433.743"/>
<polygon fill="black" stroke="black" points="580.009,-436.936 590.503,-438.4 583.213,-430.712 580.009,-436.936"/>
</g>
<!-- 12&#45;&gt;19 -->
<g id="edge22" class="edge"><title>12&#45;&gt;19</title>
<path fill="none" stroke="black" d="M704.499,-184.873C730.898,-173.395 765.989,-158.428 797.367,-146 806.656,-142.321 816.488,-138.557 826.199,-134.915"/>
<polygon fill="black" stroke="black" points="827.696,-138.092 835.845,-131.322 825.253,-131.533 827.696,-138.092"/>
</g>
<!-- 13&#45;&gt;14 -->
<g id="edge23" class="edge"><title>13&#45;&gt;14</title>
<path fill="none" stroke="black" d="M694.323,-287.454C720.542,-266.722 759.765,-237.786 797.367,-218 810.399,-211.142 825.03,-205.011 838.932,-199.837"/>
<polygon fill="black" stroke="black" points="840.197,-203.101 848.412,-196.41 837.817,-196.518 840.197,-203.101"/>
</g>
<!-- 20 -->
<g id="node21" class="node"><title>20</title>
<ellipse fill="#ffffc0" stroke="black" cx="1130.35" cy="-182" rx="98.9899" ry="26.7407"/>
<text text-anchor="middle" x="1130.35" y="-185.8" font-family="Times,serif" font-size="14.00">ALU BinaryOps.ADD</text>
<text text-anchor="middle" x="1130.35" y="-170.8" font-family="Times,serif" font-size="14.00">dtypes.float</text>
</g>
<!-- 14&#45;&gt;20 -->
<g id="edge24" class="edge"><title>14&#45;&gt;20</title>
<path fill="none" stroke="black" d="M953.224,-182C973.637,-182 997.484,-182 1020.92,-182"/>
<polygon fill="black" stroke="black" points="1020.92,-185.5 1030.92,-182 1020.92,-178.5 1020.92,-185.5"/>
</g>
<!-- 15&#45;&gt;16 -->
<g id="edge25" class="edge"><title>15&#45;&gt;16</title>
<path fill="none" stroke="black" d="M732.961,-366.142C743.114,-361.545 752.962,-355.901 761.367,-349 785.107,-329.506 773.627,-309.494 797.367,-290 808.356,-280.976 821.814,-274.102 835.195,-268.907"/>
<polygon fill="black" stroke="black" points="836.667,-272.097 844.889,-265.415 834.294,-265.512 836.667,-272.097"/>
</g>
<!-- 21 -->
<g id="node22" class="node"><title>21</title>
<ellipse fill="#ffffc0" stroke="black" cx="1364.34" cy="-214" rx="98.9899" ry="26.7407"/>
<text text-anchor="middle" x="1364.34" y="-217.8" font-family="Times,serif" font-size="14.00">ALU BinaryOps.ADD</text>
<text text-anchor="middle" x="1364.34" y="-202.8" font-family="Times,serif" font-size="14.00">dtypes.float</text>
</g>
<!-- 16&#45;&gt;21 -->
<g id="edge26" class="edge"><title>16&#45;&gt;21</title>
<path fill="none" stroke="black" d="M952.186,-249.294C1027.51,-242.828 1164.46,-231.072 1259.5,-222.914"/>
<polygon fill="black" stroke="black" points="1260.05,-226.379 1269.72,-222.037 1259.45,-219.405 1260.05,-226.379"/>
</g>
<!-- 17&#45;&gt;18 -->
<g id="edge27" class="edge"><title>17&#45;&gt;18</title>
<path fill="none" stroke="black" d="M726.651,-436.556C738.433,-431.97 750.46,-426.739 761.367,-421 796.548,-402.487 833.15,-375.964 859.191,-355.645"/>
<polygon fill="black" stroke="black" points="861.574,-358.224 867.26,-349.284 857.24,-352.727 861.574,-358.224"/>
</g>
<!-- 22 -->
<g id="node23" class="node"><title>22</title>
<ellipse fill="#ffffc0" stroke="black" cx="1598.33" cy="-214" rx="98.9899" ry="26.7407"/>
<text text-anchor="middle" x="1598.33" y="-217.8" font-family="Times,serif" font-size="14.00">ALU BinaryOps.ADD</text>
<text text-anchor="middle" x="1598.33" y="-202.8" font-family="Times,serif" font-size="14.00">dtypes.float</text>
</g>
<!-- 18&#45;&gt;22 -->
<g id="edge28" class="edge"><title>18&#45;&gt;22</title>
<path fill="none" stroke="black" d="M951.989,-321.031C1053.42,-311.282 1277.43,-287.293 1463.34,-250 1482.14,-246.228 1502.21,-241.32 1520.94,-236.347"/>
<polygon fill="black" stroke="black" points="1521.85,-239.726 1530.6,-233.746 1520.03,-232.967 1521.85,-239.726"/>
</g>
<!-- 19&#45;&gt;20 -->
<g id="edge29" class="edge"><title>19&#45;&gt;20</title>
<path fill="none" stroke="black" d="M962.292,-130.152C990.955,-139.047 1024.81,-149.556 1054.53,-158.779"/>
<polygon fill="black" stroke="black" points="1053.85,-162.232 1064.44,-161.853 1055.92,-155.546 1053.85,-162.232"/>
</g>
<!-- 20&#45;&gt;21 -->
<g id="edge30" class="edge"><title>20&#45;&gt;21</title>
<path fill="none" stroke="black" d="M1219.06,-194.098C1234.21,-196.189 1250.06,-198.374 1265.46,-200.499"/>
<polygon fill="black" stroke="black" points="1265.13,-203.986 1275.51,-201.885 1266.08,-197.051 1265.13,-203.986"/>
</g>
<!-- 21&#45;&gt;22 -->
<g id="edge31" class="edge"><title>21&#45;&gt;22</title>
<path fill="none" stroke="black" d="M1463.39,-214C1471.92,-214 1480.59,-214 1489.2,-214"/>
<polygon fill="black" stroke="black" points="1489.26,-217.5 1499.26,-214 1489.26,-210.5 1489.26,-217.5"/>
</g>
<!-- 22&#45;&gt;23 -->
<g id="edge32" class="edge"><title>22&#45;&gt;23</title>
<path fill="none" stroke="black" d="M1657.21,-192.396C1702.93,-175.329 1766.26,-151.692 1810.86,-135.043"/>
<polygon fill="black" stroke="black" points="1812.22,-138.272 1820.36,-131.496 1809.77,-131.714 1812.22,-138.272"/>
</g>
<!-- 23&#45;&gt;25 -->
<g id="edge33" class="edge"><title>23&#45;&gt;25</title>
<path fill="none" stroke="black" d="M1896.91,-137.547C1946.79,-174.6 2046.21,-248.454 2102.95,-290.602"/>
<polygon fill="black" stroke="black" points="2100.88,-293.429 2111,-296.583 2105.06,-287.81 2100.88,-293.429"/>
</g>
<!-- 25&#45;&gt;26 -->
<g id="edge34" class="edge"><title>25&#45;&gt;26</title>
<path fill="none" stroke="black" d="M2172.98,-348.02C2207.65,-383.033 2269.18,-445.166 2305.73,-482.073"/>
<polygon fill="black" stroke="black" points="2303.61,-484.904 2313.13,-489.547 2308.58,-479.979 2303.61,-484.904"/>
</g>
</g>
</svg>
