<?xml version="1.0" encoding="UTF-8" standalone="no"?>
<!DOCTYPE svg PUBLIC "-//W3C//DTD SVG 1.1//EN"
 "http://www.w3.org/Graphics/SVG/1.1/DTD/svg11.dtd">
<!-- Generated by graphviz version 2.38.0 (20140413.2041)
 -->
<!-- Title: %3 Pages: 1 -->
<svg width="545pt" height="552pt"
 viewBox="0.00 0.00 544.53 552.13" xmlns="http://www.w3.org/2000/svg" xmlns:xlink="http://www.w3.org/1999/xlink">
<g id="graph0" class="graph" transform="scale(1 1) rotate(0) translate(4 548.127)">
<title>%3</title>
<polygon fill="white" stroke="none" points="-4,4 -4,-548.127 540.534,-548.127 540.534,4 -4,4"/>
<!-- 0 -->
<g id="node1" class="node"><title>0</title>
<ellipse fill="#80ff80" fill-opacity="0.501961" stroke="black" stroke-dasharray="5,2" cx="162.267" cy="-115.87" rx="61.5366" ry="26.7407"/>
<text text-anchor="middle" x="162.267" y="-119.67" font-family="Times,serif" font-size="14.00">(1024, 1024)</text>
<text text-anchor="middle" x="162.267" y="-104.67" font-family="Times,serif" font-size="14.00">(1024, 1)</text>
</g>
<!-- 7 -->
<g id="node8" class="node"><title>7</title>
<polygon fill="#c0c0c0" stroke="black" stroke-width="2" points="267.767,-53 162.767,-53 162.767,-0 267.767,-0 267.767,-53"/>
<text text-anchor="middle" x="215.267" y="-37.8" font-family="Times,serif" font-size="14.00">(1024, 1024)</text>
<text text-anchor="middle" x="215.267" y="-22.8" font-family="Times,serif" font-size="14.00">BinaryOps.SUB</text>
<text text-anchor="middle" x="215.267" y="-7.8" font-family="Times,serif" font-size="14.00">K:1 b:2</text>
</g>
<!-- 0&#45;&gt;7 -->
<g id="edge1" class="edge"><title>0&#45;&gt;7</title>
<path fill="none" stroke="#a0a0a0" d="M177.597,-89.599C182.879,-80.8912 188.886,-70.9886 194.527,-61.6893"/>
<polygon fill="#a0a0a0" stroke="#a0a0a0" points="197.594,-63.3821 199.788,-53.0169 191.609,-59.7515 197.594,-63.3821"/>
</g>
<!-- 1 -->
<g id="node2" class="node"><title>1</title>
<ellipse fill="#ffa0a0" fill-opacity="0.501961" stroke="black" stroke-dasharray="5,2" cx="145.267" cy="-216.217" rx="95.4188" ry="37.4533"/>
<text text-anchor="middle" x="145.267" y="-227.517" font-family="Times,serif" font-size="14.00">{(1024, 1024, 1024)}</text>
<text text-anchor="middle" x="145.267" y="-212.517" font-family="Times,serif" font-size="14.00">(1024, 1024, 1)</text>
<text text-anchor="middle" x="145.267" y="-197.517" font-family="Times,serif" font-size="14.00">ReduceOps.SUM</text>
</g>
<!-- 1&#45;&gt;0 -->
<g id="edge2" class="edge"><title>1&#45;&gt;0</title>
<path fill="none" stroke="#000000" stroke-opacity="0.376471" d="M151.597,-178.596C153.06,-170.132 154.615,-161.136 156.072,-152.706"/>
<polygon fill="#000000" fill-opacity="0.376471" stroke="#000000" stroke-opacity="0.376471" points="159.534,-153.228 157.789,-142.778 152.636,-152.035 159.534,-153.228"/>
</g>
<!-- 3 -->
<g id="node3" class="node"><title>3</title>
<ellipse fill="#80ff80" fill-opacity="0.501961" stroke="black" stroke-dasharray="5,2" cx="86.267" cy="-406.304" rx="86.0347" ry="26.7407"/>
<text text-anchor="middle" x="86.267" y="-410.104" font-family="Times,serif" font-size="14.00">(1024, 1024, 1024)</text>
<text text-anchor="middle" x="86.267" y="-395.104" font-family="Times,serif" font-size="14.00">(1024, 0, 1)</text>
</g>
<!-- 2 -->
<g id="node5" class="node"><title>2</title>
<ellipse fill="#c0c0c0" fill-opacity="0.501961" stroke="black" stroke-dasharray="5,2" cx="145.267" cy="-316.563" rx="86.0347" ry="26.7407"/>
<text text-anchor="middle" x="145.267" y="-320.363" font-family="Times,serif" font-size="14.00">(1024, 1024, 1024)</text>
<text text-anchor="middle" x="145.267" y="-305.363" font-family="Times,serif" font-size="14.00">BinaryOps.MUL</text>
</g>
<!-- 3&#45;&gt;2 -->
<g id="edge3" class="edge"><title>3&#45;&gt;2</title>
<path fill="none" stroke="#a0a0a0" d="M103.332,-379.926C109.273,-371.091 116.038,-361.031 122.373,-351.609"/>
<polygon fill="#a0a0a0" stroke="#a0a0a0" points="125.36,-353.44 128.036,-343.189 119.551,-349.534 125.36,-353.44"/>
</g>
<!-- 4 -->
<g id="node4" class="node"><title>4</title>
<ellipse fill="#ffffa0" stroke="black" stroke-width="2" cx="169.267" cy="-506.65" rx="89.6056" ry="37.4533"/>
<text text-anchor="middle" x="169.267" y="-517.95" font-family="Times,serif" font-size="14.00">(1024, 1024)</text>
<text text-anchor="middle" x="169.267" y="-502.95" font-family="Times,serif" font-size="14.00">LoadOps.CUSTOM</text>
<text text-anchor="middle" x="169.267" y="-487.95" font-family="Times,serif" font-size="14.00">K:0 b:0</text>
</g>
<!-- 4&#45;&gt;3 -->
<g id="edge4" class="edge"><title>4&#45;&gt;3</title>
<path fill="none" stroke="#000000" stroke-opacity="0.376471" d="M140.004,-470.977C131.534,-460.941 122.317,-450.019 113.946,-440.101"/>
<polygon fill="#000000" fill-opacity="0.376471" stroke="#000000" stroke-opacity="0.376471" points="116.57,-437.783 107.446,-432.398 111.22,-442.298 116.57,-437.783"/>
</g>
<!-- 8 -->
<g id="node9" class="node"><title>8</title>
<ellipse fill="#c0c0c0" fill-opacity="0.501961" stroke="black" stroke-dasharray="5,2" cx="268.267" cy="-406.304" rx="77.5641" ry="26.7407"/>
<text text-anchor="middle" x="268.267" y="-410.104" font-family="Times,serif" font-size="14.00">(1024, 1024)</text>
<text text-anchor="middle" x="268.267" y="-395.104" font-family="Times,serif" font-size="14.00">BinaryOps.MUL</text>
</g>
<!-- 4&#45;&gt;8 -->
<g id="edge5" class="edge"><title>4&#45;&gt;8</title>
<path fill="none" stroke="#a0a0a0" d="M203.337,-471.805C213.959,-461.253 225.634,-449.655 236.12,-439.239"/>
<polygon fill="#a0a0a0" stroke="#a0a0a0" points="238.885,-441.425 243.513,-431.895 233.951,-436.459 238.885,-441.425"/>
</g>
<!-- 2&#45;&gt;1 -->
<g id="edge6" class="edge"><title>2&#45;&gt;1</title>
<path fill="none" stroke="#a0a0a0" d="M145.267,-289.467C145.267,-281.614 145.267,-272.745 145.267,-263.979"/>
<polygon fill="#a0a0a0" stroke="#a0a0a0" points="148.767,-263.802 145.267,-253.803 141.767,-263.803 148.767,-263.802"/>
</g>
<!-- 5 -->
<g id="node6" class="node"><title>5</title>
<ellipse fill="#80ff80" fill-opacity="0.501961" stroke="black" stroke-dasharray="5,2" cx="450.267" cy="-406.304" rx="86.0347" ry="26.7407"/>
<text text-anchor="middle" x="450.267" y="-410.104" font-family="Times,serif" font-size="14.00">(1024, 1024, 1024)</text>
<text text-anchor="middle" x="450.267" y="-395.104" font-family="Times,serif" font-size="14.00">(0, 1, 1024)</text>
</g>
<!-- 5&#45;&gt;2 -->
<g id="edge7" class="edge"><title>5&#45;&gt;2</title>
<path fill="none" stroke="#a0a0a0" d="M388.178,-387.442C338.598,-373.18 269.065,-353.177 217.089,-338.225"/>
<polygon fill="#a0a0a0" stroke="#a0a0a0" points="217.847,-334.801 207.269,-335.4 215.912,-341.528 217.847,-334.801"/>
</g>
<!-- 6 -->
<g id="node7" class="node"><title>6</title>
<ellipse fill="#ffffa0" stroke="black" stroke-width="2" cx="408.267" cy="-506.65" rx="89.6056" ry="37.4533"/>
<text text-anchor="middle" x="408.267" y="-517.95" font-family="Times,serif" font-size="14.00">(1024, 1024)</text>
<text text-anchor="middle" x="408.267" y="-502.95" font-family="Times,serif" font-size="14.00">LoadOps.CUSTOM</text>
<text text-anchor="middle" x="408.267" y="-487.95" font-family="Times,serif" font-size="14.00">K:0 b:1</text>
</g>
<!-- 6&#45;&gt;5 -->
<g id="edge8" class="edge"><title>6&#45;&gt;5</title>
<path fill="none" stroke="#000000" stroke-opacity="0.376471" d="M423.668,-469.588C427.45,-460.731 431.494,-451.262 435.258,-442.449"/>
<polygon fill="#000000" fill-opacity="0.376471" stroke="#000000" stroke-opacity="0.376471" points="438.498,-443.774 439.206,-433.203 432.06,-441.025 438.498,-443.774"/>
</g>
<!-- 6&#45;&gt;8 -->
<g id="edge9" class="edge"><title>6&#45;&gt;8</title>
<path fill="none" stroke="#a0a0a0" d="M363.2,-473.991C346.182,-462.037 326.904,-448.494 310.186,-436.751"/>
<polygon fill="#a0a0a0" stroke="#a0a0a0" points="311.898,-433.676 301.703,-430.792 307.874,-439.404 311.898,-433.676"/>
</g>
<!-- 8&#45;&gt;7 -->
<g id="edge10" class="edge"><title>8&#45;&gt;7</title>
<path fill="none" stroke="#a0a0a0" d="M267.495,-379.114C265.422,-324.488 258.079,-194.691 233.267,-89 231.257,-80.4371 228.771,-71.2974 226.296,-62.7538"/>
<polygon fill="#a0a0a0" stroke="#a0a0a0" points="229.623,-61.6608 223.424,-53.0686 222.912,-63.6511 229.623,-61.6608"/>
</g>
</g>
</svg>
