<?xml version="1.0" encoding="UTF-8" standalone="no"?>
<!DOCTYPE svg PUBLIC "-//W3C//DTD SVG 1.1//EN"
 "http://www.w3.org/Graphics/SVG/1.1/DTD/svg11.dtd">
<!-- Generated by graphviz version 2.38.0 (20140413.2041)
 -->
<!-- Title: %3 Pages: 1 -->
<svg width="545pt" height="1197pt"
 viewBox="0.00 0.00 544.53 1196.63" xmlns="http://www.w3.org/2000/svg" xmlns:xlink="http://www.w3.org/1999/xlink">
<g id="graph0" class="graph" transform="scale(1 1) rotate(0) translate(4 1192.63)">
<title>%3</title>
<polygon fill="white" stroke="none" points="-4,4 -4,-1192.63 540.534,-1192.63 540.534,4 -4,4"/>
<!-- 0 -->
<g id="node1" class="node"><title>0</title>
<ellipse fill="#80ff80" fill-opacity="0.501961" stroke="black" stroke-dasharray="5,2" cx="215.267" cy="-126.477" rx="27" ry="26.7407"/>
<text text-anchor="middle" x="215.267" y="-130.277" font-family="Times,serif" font-size="14.00">()</text>
<text text-anchor="middle" x="215.267" y="-115.277" font-family="Times,serif" font-size="14.00">()</text>
</g>
<!-- 14 -->
<g id="node15" class="node"><title>14</title>
<polygon fill="#c0c0c0" stroke="black" stroke-width="2" points="341.267,-53 231.267,-53 231.267,-0 341.267,-0 341.267,-53"/>
<text text-anchor="middle" x="286.267" y="-37.8" font-family="Times,serif" font-size="14.00">()</text>
<text text-anchor="middle" x="286.267" y="-22.8" font-family="Times,serif" font-size="14.00">BinaryOps.MUL</text>
<text text-anchor="middle" x="286.267" y="-7.8" font-family="Times,serif" font-size="14.00">K:3 b:4</text>
</g>
<!-- 0&#45;&gt;14 -->
<g id="edge1" class="edge"><title>0&#45;&gt;14</title>
<path fill="none" stroke="#a0a0a0" d="M230.673,-104.217C239.742,-91.7026 251.419,-75.5883 261.729,-61.3613"/>
<polygon fill="#a0a0a0" stroke="#a0a0a0" points="264.577,-63.3954 267.611,-53.2442 258.909,-59.2879 264.577,-63.3954"/>
</g>
<!-- 1 -->
<g id="node2" class="node"><title>1</title>
<ellipse fill="#ffa0a0" fill-opacity="0.501961" stroke="black" stroke-dasharray="5,2" cx="215.267" cy="-237.43" rx="79.8062" ry="37.4533"/>
<text text-anchor="middle" x="215.267" y="-248.73" font-family="Times,serif" font-size="14.00">{(1024, 4)}</text>
<text text-anchor="middle" x="215.267" y="-233.73" font-family="Times,serif" font-size="14.00">(1, 1)</text>
<text text-anchor="middle" x="215.267" y="-218.73" font-family="Times,serif" font-size="14.00">ReduceOps.SUM</text>
</g>
<!-- 1&#45;&gt;0 -->
<g id="edge2" class="edge"><title>1&#45;&gt;0</title>
<path fill="none" stroke="#000000" stroke-opacity="0.376471" d="M215.267,-199.847C215.267,-188.204 215.267,-175.333 215.267,-163.714"/>
<polygon fill="#000000" fill-opacity="0.376471" stroke="#000000" stroke-opacity="0.376471" points="218.767,-163.467 215.267,-153.467 211.767,-163.467 218.767,-163.467"/>
</g>
<!-- 2 -->
<g id="node3" class="node"><title>2</title>
<ellipse fill="#80ff80" fill-opacity="0.501961" stroke="black" stroke-dasharray="5,2" cx="215.267" cy="-337.777" rx="47.2526" ry="26.7407"/>
<text text-anchor="middle" x="215.267" y="-341.577" font-family="Times,serif" font-size="14.00">(1024, 4)</text>
<text text-anchor="middle" x="215.267" y="-326.577" font-family="Times,serif" font-size="14.00">(4, 1)</text>
</g>
<!-- 2&#45;&gt;1 -->
<g id="edge3" class="edge"><title>2&#45;&gt;1</title>
<path fill="none" stroke="#a0a0a0" d="M215.267,-310.68C215.267,-302.827 215.267,-293.958 215.267,-285.192"/>
<polygon fill="#a0a0a0" stroke="#a0a0a0" points="218.767,-285.016 215.267,-275.016 211.767,-285.016 218.767,-285.016"/>
</g>
<!-- 3 -->
<g id="node4" class="node"><title>3</title>
<ellipse fill="#ffa0a0" stroke="black" stroke-width="2" cx="215.267" cy="-448.73" rx="79.8062" ry="48.1667"/>
<text text-anchor="middle" x="215.267" y="-467.53" font-family="Times,serif" font-size="14.00">{(1024, 4, 256)}</text>
<text text-anchor="middle" x="215.267" y="-452.53" font-family="Times,serif" font-size="14.00">(1024, 4, 1)</text>
<text text-anchor="middle" x="215.267" y="-437.53" font-family="Times,serif" font-size="14.00">ReduceOps.SUM</text>
<text text-anchor="middle" x="215.267" y="-422.53" font-family="Times,serif" font-size="14.00">K:2 b:3</text>
</g>
<!-- 3&#45;&gt;2 -->
<g id="edge4" class="edge"><title>3&#45;&gt;2</title>
<path fill="none" stroke="#000000" stroke-opacity="0.376471" d="M215.267,-400.575C215.267,-391.921 215.267,-383.017 215.267,-374.756"/>
<polygon fill="#000000" fill-opacity="0.376471" stroke="#000000" stroke-opacity="0.376471" points="218.767,-374.704 215.267,-364.704 211.767,-374.704 218.767,-374.704"/>
</g>
<!-- 4 -->
<g id="node5" class="node"><title>4</title>
<ellipse fill="#80ff80" fill-opacity="0.501961" stroke="black" stroke-dasharray="5,2" cx="215.267" cy="-559.683" rx="67.3507" ry="26.7407"/>
<text text-anchor="middle" x="215.267" y="-563.483" font-family="Times,serif" font-size="14.00">(1024, 4, 256)</text>
<text text-anchor="middle" x="215.267" y="-548.483" font-family="Times,serif" font-size="14.00">(1024, 256, 1)</text>
</g>
<!-- 4&#45;&gt;3 -->
<g id="edge5" class="edge"><title>4&#45;&gt;3</title>
<path fill="none" stroke="#a0a0a0" d="M215.267,-532.586C215.267,-524.81 215.267,-515.964 215.267,-507.017"/>
<polygon fill="#a0a0a0" stroke="#a0a0a0" points="218.767,-506.923 215.267,-496.923 211.767,-506.923 218.767,-506.923"/>
</g>
<!-- 5 -->
<g id="node6" class="node"><title>5</title>
<ellipse fill="#c0c0c0" stroke="black" stroke-width="2" cx="215.267" cy="-660.03" rx="74.4932" ry="37.4533"/>
<text text-anchor="middle" x="215.267" y="-671.33" font-family="Times,serif" font-size="14.00">(1024, 1024)</text>
<text text-anchor="middle" x="215.267" y="-656.33" font-family="Times,serif" font-size="14.00">BinaryOps.SUB</text>
<text text-anchor="middle" x="215.267" y="-641.33" font-family="Times,serif" font-size="14.00">K:1 b:2</text>
</g>
<!-- 5&#45;&gt;4 -->
<g id="edge6" class="edge"><title>5&#45;&gt;4</title>
<path fill="none" stroke="#000000" stroke-opacity="0.376471" d="M215.267,-622.409C215.267,-614.038 215.267,-605.147 215.267,-596.798"/>
<polygon fill="#000000" fill-opacity="0.376471" stroke="#000000" stroke-opacity="0.376471" points="218.767,-596.591 215.267,-586.591 211.767,-596.591 218.767,-596.591"/>
</g>
<!-- 6 -->
<g id="node7" class="node"><title>6</title>
<ellipse fill="#80ff80" fill-opacity="0.501961" stroke="black" stroke-dasharray="5,2" cx="162.267" cy="-760.377" rx="61.5366" ry="26.7407"/>
<text text-anchor="middle" x="162.267" y="-764.177" font-family="Times,serif" font-size="14.00">(1024, 1024)</text>
<text text-anchor="middle" x="162.267" y="-749.177" font-family="Times,serif" font-size="14.00">(1024, 1)</text>
</g>
<!-- 6&#45;&gt;5 -->
<g id="edge7" class="edge"><title>6&#45;&gt;5</title>
<path fill="none" stroke="#a0a0a0" d="M175.916,-734.05C180.659,-725.248 186.128,-715.101 191.45,-705.225"/>
<polygon fill="#a0a0a0" stroke="#a0a0a0" points="194.609,-706.741 196.272,-696.277 188.447,-703.42 194.609,-706.741"/>
</g>
<!-- 7 -->
<g id="node8" class="node"><title>7</title>
<ellipse fill="#ffa0a0" fill-opacity="0.501961" stroke="black" stroke-dasharray="5,2" cx="145.267" cy="-860.723" rx="95.4188" ry="37.4533"/>
<text text-anchor="middle" x="145.267" y="-872.023" font-family="Times,serif" font-size="14.00">{(1024, 1024, 1024)}</text>
<text text-anchor="middle" x="145.267" y="-857.023" font-family="Times,serif" font-size="14.00">(1024, 1024, 1)</text>
<text text-anchor="middle" x="145.267" y="-842.023" font-family="Times,serif" font-size="14.00">ReduceOps.SUM</text>
</g>
<!-- 7&#45;&gt;6 -->
<g id="edge8" class="edge"><title>7&#45;&gt;6</title>
<path fill="none" stroke="#000000" stroke-opacity="0.376471" d="M151.597,-823.103C153.06,-814.639 154.615,-805.643 156.072,-797.213"/>
<polygon fill="#000000" fill-opacity="0.376471" stroke="#000000" stroke-opacity="0.376471" points="159.534,-797.735 157.789,-787.285 152.636,-796.542 159.534,-797.735"/>
</g>
<!-- 9 -->
<g id="node9" class="node"><title>9</title>
<ellipse fill="#80ff80" fill-opacity="0.501961" stroke="black" stroke-dasharray="5,2" cx="86.267" cy="-1050.81" rx="86.0347" ry="26.7407"/>
<text text-anchor="middle" x="86.267" y="-1054.61" font-family="Times,serif" font-size="14.00">(1024, 1024, 1024)</text>
<text text-anchor="middle" x="86.267" y="-1039.61" font-family="Times,serif" font-size="14.00">(1024, 0, 1)</text>
</g>
<!-- 8 -->
<g id="node11" class="node"><title>8</title>
<ellipse fill="#c0c0c0" fill-opacity="0.501961" stroke="black" stroke-dasharray="5,2" cx="145.267" cy="-961.07" rx="86.0347" ry="26.7407"/>
<text text-anchor="middle" x="145.267" y="-964.87" font-family="Times,serif" font-size="14.00">(1024, 1024, 1024)</text>
<text text-anchor="middle" x="145.267" y="-949.87" font-family="Times,serif" font-size="14.00">BinaryOps.MUL</text>
</g>
<!-- 9&#45;&gt;8 -->
<g id="edge9" class="edge"><title>9&#45;&gt;8</title>
<path fill="none" stroke="#a0a0a0" d="M103.332,-1024.43C109.273,-1015.6 116.038,-1005.54 122.373,-996.116"/>
<polygon fill="#a0a0a0" stroke="#a0a0a0" points="125.36,-997.947 128.036,-987.695 119.551,-994.04 125.36,-997.947"/>
</g>
<!-- 10 -->
<g id="node10" class="node"><title>10</title>
<ellipse fill="#ffffa0" stroke="black" stroke-width="2" cx="169.267" cy="-1151.16" rx="89.6056" ry="37.4533"/>
<text text-anchor="middle" x="169.267" y="-1162.46" font-family="Times,serif" font-size="14.00">(1024, 1024)</text>
<text text-anchor="middle" x="169.267" y="-1147.46" font-family="Times,serif" font-size="14.00">LoadOps.CUSTOM</text>
<text text-anchor="middle" x="169.267" y="-1132.46" font-family="Times,serif" font-size="14.00">K:0 b:0</text>
</g>
<!-- 10&#45;&gt;9 -->
<g id="edge10" class="edge"><title>10&#45;&gt;9</title>
<path fill="none" stroke="#000000" stroke-opacity="0.376471" d="M140.004,-1115.48C131.534,-1105.45 122.317,-1094.53 113.946,-1084.61"/>
<polygon fill="#000000" fill-opacity="0.376471" stroke="#000000" stroke-opacity="0.376471" points="116.57,-1082.29 107.446,-1076.9 111.22,-1086.8 116.57,-1082.29"/>
</g>
<!-- 13 -->
<g id="node14" class="node"><title>13</title>
<ellipse fill="#c0c0c0" fill-opacity="0.501961" stroke="black" stroke-dasharray="5,2" cx="268.267" cy="-1050.81" rx="77.5641" ry="26.7407"/>
<text text-anchor="middle" x="268.267" y="-1054.61" font-family="Times,serif" font-size="14.00">(1024, 1024)</text>
<text text-anchor="middle" x="268.267" y="-1039.61" font-family="Times,serif" font-size="14.00">BinaryOps.MUL</text>
</g>
<!-- 10&#45;&gt;13 -->
<g id="edge11" class="edge"><title>10&#45;&gt;13</title>
<path fill="none" stroke="#a0a0a0" d="M203.337,-1116.31C213.959,-1105.76 225.634,-1094.16 236.12,-1083.75"/>
<polygon fill="#a0a0a0" stroke="#a0a0a0" points="238.885,-1085.93 243.513,-1076.4 233.951,-1080.97 238.885,-1085.93"/>
</g>
<!-- 8&#45;&gt;7 -->
<g id="edge12" class="edge"><title>8&#45;&gt;7</title>
<path fill="none" stroke="#a0a0a0" d="M145.267,-933.973C145.267,-926.12 145.267,-917.252 145.267,-908.486"/>
<polygon fill="#a0a0a0" stroke="#a0a0a0" points="148.767,-908.309 145.267,-898.309 141.767,-908.309 148.767,-908.309"/>
</g>
<!-- 11 -->
<g id="node12" class="node"><title>11</title>
<ellipse fill="#80ff80" fill-opacity="0.501961" stroke="black" stroke-dasharray="5,2" cx="450.267" cy="-1050.81" rx="86.0347" ry="26.7407"/>
<text text-anchor="middle" x="450.267" y="-1054.61" font-family="Times,serif" font-size="14.00">(1024, 1024, 1024)</text>
<text text-anchor="middle" x="450.267" y="-1039.61" font-family="Times,serif" font-size="14.00">(0, 1, 1024)</text>
</g>
<!-- 11&#45;&gt;8 -->
<g id="edge13" class="edge"><title>11&#45;&gt;8</title>
<path fill="none" stroke="#a0a0a0" d="M388.178,-1031.95C338.598,-1017.69 269.065,-997.683 217.089,-982.732"/>
<polygon fill="#a0a0a0" stroke="#a0a0a0" points="217.847,-979.308 207.269,-979.906 215.912,-986.035 217.847,-979.308"/>
</g>
<!-- 12 -->
<g id="node13" class="node"><title>12</title>
<ellipse fill="#ffffa0" stroke="black" stroke-width="2" cx="408.267" cy="-1151.16" rx="89.6056" ry="37.4533"/>
<text text-anchor="middle" x="408.267" y="-1162.46" font-family="Times,serif" font-size="14.00">(1024, 1024)</text>
<text text-anchor="middle" x="408.267" y="-1147.46" font-family="Times,serif" font-size="14.00">LoadOps.CUSTOM</text>
<text text-anchor="middle" x="408.267" y="-1132.46" font-family="Times,serif" font-size="14.00">K:0 b:1</text>
</g>
<!-- 12&#45;&gt;11 -->
<g id="edge14" class="edge"><title>12&#45;&gt;11</title>
<path fill="none" stroke="#000000" stroke-opacity="0.376471" d="M423.668,-1114.09C427.45,-1105.24 431.494,-1095.77 435.258,-1086.96"/>
<polygon fill="#000000" fill-opacity="0.376471" stroke="#000000" stroke-opacity="0.376471" points="438.498,-1088.28 439.206,-1077.71 432.06,-1085.53 438.498,-1088.28"/>
</g>
<!-- 12&#45;&gt;13 -->
<g id="edge15" class="edge"><title>12&#45;&gt;13</title>
<path fill="none" stroke="#a0a0a0" d="M363.2,-1118.5C346.182,-1106.54 326.904,-1093 310.186,-1081.26"/>
<polygon fill="#a0a0a0" stroke="#a0a0a0" points="311.898,-1078.18 301.703,-1075.3 307.874,-1083.91 311.898,-1078.18"/>
</g>
<!-- 13&#45;&gt;5 -->
<g id="edge16" class="edge"><title>13&#45;&gt;5</title>
<path fill="none" stroke="#a0a0a0" d="M266.879,-1023.9C264.442,-981.729 258.737,-895.653 249.267,-823.247 244.013,-783.075 241.71,-773.131 233.267,-733.507 231.461,-725.031 229.371,-716.04 227.268,-707.381"/>
<polygon fill="#a0a0a0" stroke="#a0a0a0" points="230.604,-706.289 224.81,-697.419 223.808,-707.966 230.604,-706.289"/>
</g>
<!-- 15 -->
<g id="node16" class="node"><title>15</title>
<ellipse fill="#ffffa0" fill-opacity="0.501961" stroke="black" stroke-dasharray="5,2" cx="358.267" cy="-126.477" rx="98.0761" ry="37.4533"/>
<text text-anchor="middle" x="358.267" y="-137.777" font-family="Times,serif" font-size="14.00">()</text>
<text text-anchor="middle" x="358.267" y="-122.777" font-family="Times,serif" font-size="14.00">LoadOps.CONST</text>
<text text-anchor="middle" x="358.267" y="-107.777" font-family="Times,serif" font-size="14.00">9.5367431640625e&#45;07</text>
</g>
<!-- 15&#45;&gt;14 -->
<g id="edge17" class="edge"><title>15&#45;&gt;14</title>
<path fill="none" stroke="#a0a0a0" d="M332.273,-90.1048C325.427,-80.7883 318.056,-70.7581 311.263,-61.5148"/>
<polygon fill="#a0a0a0" stroke="#a0a0a0" points="313.962,-59.2758 305.219,-53.2903 308.321,-63.421 313.962,-59.2758"/>
</g>
</g>
</svg>
