<?xml version="1.0" encoding="UTF-8" standalone="no"?>
<!DOCTYPE svg PUBLIC "-//W3C//DTD SVG 1.1//EN"
 "http://www.w3.org/Graphics/SVG/1.1/DTD/svg11.dtd">
<!-- Generated by graphviz version 2.38.0 (20140413.2041)
 -->
<!-- Title: %3 Pages: 1 -->
<svg width="386pt" height="172pt"
 viewBox="0.00 0.00 385.61 171.95" xmlns="http://www.w3.org/2000/svg" xmlns:xlink="http://www.w3.org/1999/xlink">
<g id="graph0" class="graph" transform="scale(1 1) rotate(0) translate(4 167.953)">
<title>%3</title>
<polygon fill="white" stroke="none" points="-4,4 -4,-167.953 381.605,-167.953 381.605,4 -4,4"/>
<!-- 0 -->
<g id="node1" class="node"><title>0</title>
<ellipse fill="#ffffa0" stroke="black" stroke-width="2" cx="89.8026" cy="-126.477" rx="89.6056" ry="37.4533"/>
<text text-anchor="middle" x="89.8026" y="-137.777" font-family="Times,serif" font-size="14.00">(256, 256)</text>
<text text-anchor="middle" x="89.8026" y="-122.777" font-family="Times,serif" font-size="14.00">LoadOps.CUSTOM</text>
<text text-anchor="middle" x="89.8026" y="-107.777" font-family="Times,serif" font-size="14.00">K:0 b:0</text>
</g>
<!-- 1 -->
<g id="node2" class="node"><title>1</title>
<polygon fill="#c0c0c0" stroke="black" stroke-width="2" points="242.803,-53 134.803,-53 134.803,-0 242.803,-0 242.803,-53"/>
<text text-anchor="middle" x="188.803" y="-37.8" font-family="Times,serif" font-size="14.00">(256, 256)</text>
<text text-anchor="middle" x="188.803" y="-22.8" font-family="Times,serif" font-size="14.00">BinaryOps.ADD</text>
<text text-anchor="middle" x="188.803" y="-7.8" font-family="Times,serif" font-size="14.00">K:1 b:2</text>
</g>
<!-- 0&#45;&gt;1 -->
<g id="edge1" class="edge"><title>0&#45;&gt;1</title>
<path fill="none" stroke="#a0a0a0" d="M123.873,-91.7587C134.135,-81.603 145.379,-70.4744 155.585,-60.3743"/>
<polygon fill="#a0a0a0" stroke="#a0a0a0" points="158.158,-62.7522 162.804,-53.2302 153.234,-57.7768 158.158,-62.7522"/>
</g>
<!-- 2 -->
<g id="node3" class="node"><title>2</title>
<ellipse fill="#ffffa0" stroke="black" stroke-width="2" cx="287.803" cy="-126.477" rx="89.6056" ry="37.4533"/>
<text text-anchor="middle" x="287.803" y="-137.777" font-family="Times,serif" font-size="14.00">(256, 256)</text>
<text text-anchor="middle" x="287.803" y="-122.777" font-family="Times,serif" font-size="14.00">LoadOps.CUSTOM</text>
<text text-anchor="middle" x="287.803" y="-107.777" font-family="Times,serif" font-size="14.00">K:0 b:1</text>
</g>
<!-- 2&#45;&gt;1 -->
<g id="edge2" class="edge"><title>2&#45;&gt;1</title>
<path fill="none" stroke="#a0a0a0" d="M253.732,-91.7587C243.471,-81.603 232.226,-70.4744 222.02,-60.3743"/>
<polygon fill="#a0a0a0" stroke="#a0a0a0" points="224.371,-57.7768 214.802,-53.2302 219.447,-62.7522 224.371,-57.7768"/>
</g>
</g>
</svg>
