<?xml version="1.0" encoding="UTF-8" standalone="no"?>
<!DOCTYPE svg PUBLIC "-//W3C//DTD SVG 1.1//EN"
 "http://www.w3.org/Graphics/SVG/1.1/DTD/svg11.dtd">
<!-- Generated by graphviz version 2.38.0 (20140413.2041)
 -->
<!-- Title: %3 Pages: 1 -->
<svg width="1309pt" height="682pt"
 viewBox="0.00 0.00 1308.70 682.14" xmlns="http://www.w3.org/2000/svg" xmlns:xlink="http://www.w3.org/1999/xlink">
<g id="graph0" class="graph" transform="scale(1 1) rotate(0) translate(4 678.143)">
<title>%3</title>
<polygon fill="white" stroke="none" points="-4,4 -4,-678.143 1304.7,-678.143 1304.7,4 -4,4"/>
<!-- 0 -->
<g id="node1" class="node"><title>0</title>
<ellipse fill="#ffe0b0" stroke="black" cx="1068.83" cy="-326.171" rx="112.36" ry="26.7407"/>
<text text-anchor="middle" x="1068.83" y="-329.971" font-family="Times,serif" font-size="14.00">DEFINE_GLOBAL data0</text>
<text text-anchor="middle" x="1068.83" y="-314.971" font-family="Times,serif" font-size="14.00">ptr.dtypes.float</text>
</g>
<!-- 26 -->
<g id="node27" class="node"><title>26</title>
<ellipse fill="#c0ffc0" stroke="black" cx="1258.98" cy="-598.171" rx="41.9398" ry="26.7407"/>
<text text-anchor="middle" x="1258.98" y="-601.971" font-family="Times,serif" font-size="14.00">STORE</text>
<text text-anchor="middle" x="1258.98" y="-586.971" font-family="Times,serif" font-size="14.00">None</text>
</g>
<!-- 0&#45;&gt;26 -->
<g id="edge1" class="edge"><title>0&#45;&gt;26</title>
<path fill="none" stroke="black" d="M1120.79,-350.033C1141.86,-362 1165.08,-378.229 1181.26,-398.171 1202.25,-424.039 1231.44,-511.653 1247.07,-561.921"/>
<polygon fill="black" stroke="black" points="1243.81,-563.221 1250.1,-571.746 1250.5,-561.158 1243.81,-563.221"/>
</g>
<!-- 27 -->
<g id="node28" class="node"><title>27</title>
<ellipse fill="#c0ffc0" stroke="black" cx="1258.98" cy="-434.171" rx="41.9398" ry="26.7407"/>
<text text-anchor="middle" x="1258.98" y="-437.971" font-family="Times,serif" font-size="14.00">STORE</text>
<text text-anchor="middle" x="1258.98" y="-422.971" font-family="Times,serif" font-size="14.00">None</text>
</g>
<!-- 0&#45;&gt;27 -->
<g id="edge2" class="edge"><title>0&#45;&gt;27</title>
<path fill="none" stroke="black" d="M1113,-350.948C1144.79,-369.199 1187.69,-393.824 1218.57,-411.546"/>
<polygon fill="black" stroke="black" points="1216.92,-414.636 1227.34,-416.579 1220.41,-408.565 1216.92,-414.636"/>
</g>
<!-- 28 -->
<g id="node29" class="node"><title>28</title>
<ellipse fill="#c0ffc0" stroke="black" cx="1258.98" cy="-245.171" rx="41.9398" ry="26.7407"/>
<text text-anchor="middle" x="1258.98" y="-248.971" font-family="Times,serif" font-size="14.00">STORE</text>
<text text-anchor="middle" x="1258.98" y="-233.971" font-family="Times,serif" font-size="14.00">None</text>
</g>
<!-- 0&#45;&gt;28 -->
<g id="edge3" class="edge"><title>0&#45;&gt;28</title>
<path fill="none" stroke="black" d="M1128.21,-303.299C1145.38,-296.381 1164.15,-288.636 1181.26,-281.171 1192.54,-276.254 1204.63,-270.709 1215.8,-265.472"/>
<polygon fill="black" stroke="black" points="1217.38,-268.596 1224.93,-261.165 1214.39,-262.265 1217.38,-268.596"/>
</g>
<!-- 29 -->
<g id="node30" class="node"><title>29</title>
<ellipse fill="#c0ffc0" stroke="black" cx="1258.98" cy="-90.1707" rx="41.9398" ry="26.7407"/>
<text text-anchor="middle" x="1258.98" y="-93.9707" font-family="Times,serif" font-size="14.00">STORE</text>
<text text-anchor="middle" x="1258.98" y="-78.9707" font-family="Times,serif" font-size="14.00">None</text>
</g>
<!-- 0&#45;&gt;29 -->
<g id="edge4" class="edge"><title>0&#45;&gt;29</title>
<path fill="none" stroke="black" d="M1143.91,-306.06C1157.57,-299.785 1170.8,-291.655 1181.26,-281.171 1192.74,-269.677 1226.6,-178.198 1245.27,-126.123"/>
<polygon fill="black" stroke="black" points="1248.61,-127.172 1248.68,-116.578 1242.02,-124.817 1248.61,-127.172"/>
</g>
<!-- 1 -->
<g id="node2" class="node"><title>1</title>
<ellipse fill="#ffe0b0" stroke="black" cx="658.836" cy="-313.171" rx="112.36" ry="26.7407"/>
<text text-anchor="middle" x="658.836" y="-316.971" font-family="Times,serif" font-size="14.00">DEFINE_GLOBAL data1</text>
<text text-anchor="middle" x="658.836" y="-301.971" font-family="Times,serif" font-size="14.00">ptr.dtypes.float</text>
</g>
<!-- 11 -->
<g id="node12" class="node"><title>11</title>
<ellipse fill="#ffc0c0" stroke="black" cx="863.835" cy="-562.171" rx="56.6372" ry="26.7407"/>
<text text-anchor="middle" x="863.835" y="-565.971" font-family="Times,serif" font-size="14.00">LOAD</text>
<text text-anchor="middle" x="863.835" y="-550.971" font-family="Times,serif" font-size="14.00">dtypes.float</text>
</g>
<!-- 1&#45;&gt;11 -->
<g id="edge5" class="edge"><title>1&#45;&gt;11</title>
<path fill="none" stroke="black" d="M745.251,-330.526C754.94,-335.309 763.945,-341.404 771.266,-349.171 815.039,-395.608 779.58,-430.673 807.266,-488.171 814.232,-502.637 824.228,-517.086 833.826,-529.327"/>
<polygon fill="black" stroke="black" points="831.359,-531.842 840.366,-537.421 836.804,-527.443 831.359,-531.842"/>
</g>
<!-- 13 -->
<g id="node14" class="node"><title>13</title>
<ellipse fill="#ffc0c0" stroke="black" cx="863.835" cy="-380.171" rx="56.6372" ry="26.7407"/>
<text text-anchor="middle" x="863.835" y="-383.971" font-family="Times,serif" font-size="14.00">LOAD</text>
<text text-anchor="middle" x="863.835" y="-368.971" font-family="Times,serif" font-size="14.00">dtypes.float</text>
</g>
<!-- 1&#45;&gt;13 -->
<g id="edge6" class="edge"><title>1&#45;&gt;13</title>
<path fill="none" stroke="black" d="M726.764,-334.626C741.439,-339.377 756.887,-344.414 771.266,-349.171 783.085,-353.08 795.742,-357.327 807.759,-361.387"/>
<polygon fill="black" stroke="black" points="806.637,-364.702 817.232,-364.593 808.882,-358.071 806.637,-364.702"/>
</g>
<!-- 15 -->
<g id="node16" class="node"><title>15</title>
<ellipse fill="#ffc0c0" stroke="black" cx="863.835" cy="-236.171" rx="56.6372" ry="26.7407"/>
<text text-anchor="middle" x="863.835" y="-239.971" font-family="Times,serif" font-size="14.00">LOAD</text>
<text text-anchor="middle" x="863.835" y="-224.971" font-family="Times,serif" font-size="14.00">dtypes.float</text>
</g>
<!-- 1&#45;&gt;15 -->
<g id="edge7" class="edge"><title>1&#45;&gt;15</title>
<path fill="none" stroke="black" d="M728.9,-292.149C743.015,-287.492 757.697,-282.383 771.266,-277.171 785.27,-271.792 800.215,-265.391 813.884,-259.266"/>
<polygon fill="black" stroke="black" points="815.45,-262.399 823.115,-255.085 812.562,-256.023 815.45,-262.399"/>
</g>
<!-- 17 -->
<g id="node18" class="node"><title>17</title>
<ellipse fill="#ffc0c0" stroke="black" cx="863.835" cy="-54.1707" rx="56.6372" ry="26.7407"/>
<text text-anchor="middle" x="863.835" y="-57.9707" font-family="Times,serif" font-size="14.00">LOAD</text>
<text text-anchor="middle" x="863.835" y="-42.9707" font-family="Times,serif" font-size="14.00">dtypes.float</text>
</g>
<!-- 1&#45;&gt;17 -->
<g id="edge8" class="edge"><title>1&#45;&gt;17</title>
<path fill="none" stroke="black" d="M745.998,-296.108C755.505,-291.276 764.262,-285.089 771.266,-277.171 827.344,-213.778 759.962,-160.355 807.266,-90.1707 809.792,-86.4235 812.852,-82.9782 816.223,-79.8304"/>
<polygon fill="black" stroke="black" points="818.521,-82.4727 824.014,-73.4131 814.07,-77.0699 818.521,-82.4727"/>
</g>
<!-- 2 -->
<g id="node3" class="node"><title>2</title>
<ellipse fill="#ffe0b0" stroke="black" cx="658.836" cy="-385.171" rx="112.36" ry="26.7407"/>
<text text-anchor="middle" x="658.836" y="-388.971" font-family="Times,serif" font-size="14.00">DEFINE_GLOBAL data2</text>
<text text-anchor="middle" x="658.836" y="-373.971" font-family="Times,serif" font-size="14.00">ptr.dtypes.float</text>
</g>
<!-- 18 -->
<g id="node19" class="node"><title>18</title>
<ellipse fill="#ffc0c0" stroke="black" cx="863.835" cy="-634.171" rx="56.6372" ry="26.7407"/>
<text text-anchor="middle" x="863.835" y="-637.971" font-family="Times,serif" font-size="14.00">LOAD</text>
<text text-anchor="middle" x="863.835" y="-622.971" font-family="Times,serif" font-size="14.00">dtypes.float</text>
</g>
<!-- 2&#45;&gt;18 -->
<g id="edge9" class="edge"><title>2&#45;&gt;18</title>
<path fill="none" stroke="black" d="M745.919,-402.304C755.439,-407.124 764.22,-413.289 771.266,-421.171 824.77,-481.019 762.051,-531.838 807.266,-598.171 809.811,-601.905 812.885,-605.341 816.266,-608.483"/>
<polygon fill="black" stroke="black" points="814.119,-611.249 824.068,-614.891 818.562,-605.84 814.119,-611.249"/>
</g>
<!-- 19 -->
<g id="node20" class="node"><title>19</title>
<ellipse fill="#ffc0c0" stroke="black" cx="863.835" cy="-452.171" rx="56.6372" ry="26.7407"/>
<text text-anchor="middle" x="863.835" y="-455.971" font-family="Times,serif" font-size="14.00">LOAD</text>
<text text-anchor="middle" x="863.835" y="-440.971" font-family="Times,serif" font-size="14.00">dtypes.float</text>
</g>
<!-- 2&#45;&gt;19 -->
<g id="edge10" class="edge"><title>2&#45;&gt;19</title>
<path fill="none" stroke="black" d="M726.764,-406.626C741.439,-411.377 756.887,-416.414 771.266,-421.171 783.085,-425.08 795.742,-429.327 807.759,-433.387"/>
<polygon fill="black" stroke="black" points="806.637,-436.702 817.232,-436.593 808.882,-430.071 806.637,-436.702"/>
</g>
<!-- 20 -->
<g id="node21" class="node"><title>20</title>
<ellipse fill="#ffc0c0" stroke="black" cx="863.835" cy="-308.171" rx="56.6372" ry="26.7407"/>
<text text-anchor="middle" x="863.835" y="-311.971" font-family="Times,serif" font-size="14.00">LOAD</text>
<text text-anchor="middle" x="863.835" y="-296.971" font-family="Times,serif" font-size="14.00">dtypes.float</text>
</g>
<!-- 2&#45;&gt;20 -->
<g id="edge11" class="edge"><title>2&#45;&gt;20</title>
<path fill="none" stroke="black" d="M728.9,-364.149C743.015,-359.492 757.697,-354.383 771.266,-349.171 785.27,-343.792 800.215,-337.391 813.884,-331.266"/>
<polygon fill="black" stroke="black" points="815.45,-334.399 823.115,-327.085 812.562,-328.023 815.45,-334.399"/>
</g>
<!-- 21 -->
<g id="node22" class="node"><title>21</title>
<ellipse fill="#ffc0c0" stroke="black" cx="863.835" cy="-126.171" rx="56.6372" ry="26.7407"/>
<text text-anchor="middle" x="863.835" y="-129.971" font-family="Times,serif" font-size="14.00">LOAD</text>
<text text-anchor="middle" x="863.835" y="-114.971" font-family="Times,serif" font-size="14.00">dtypes.float</text>
</g>
<!-- 2&#45;&gt;21 -->
<g id="edge12" class="edge"><title>2&#45;&gt;21</title>
<path fill="none" stroke="black" d="M745.372,-367.928C755.042,-363.127 764.009,-356.997 771.266,-349.171 817.589,-299.215 778.212,-261.793 807.266,-200.171 814.114,-185.648 824.083,-171.187 833.694,-158.952"/>
<polygon fill="black" stroke="black" points="836.671,-160.837 840.247,-150.864 831.232,-156.43 836.671,-160.837"/>
</g>
<!-- 3 -->
<g id="node4" class="node"><title>3</title>
<ellipse fill="#e0e0e0" stroke="black" cx="69.2965" cy="-548.171" rx="50.41" ry="26.7407"/>
<text text-anchor="middle" x="69.2965" y="-551.971" font-family="Times,serif" font-size="14.00">CONST 0</text>
<text text-anchor="middle" x="69.2965" y="-536.971" font-family="Times,serif" font-size="14.00">dtypes.int</text>
</g>
<!-- 9 -->
<g id="node10" class="node"><title>9</title>
<ellipse fill="#c8a0e0" stroke="black" cx="224.798" cy="-512.171" rx="49.4949" ry="26.7407"/>
<text text-anchor="middle" x="224.798" y="-515.971" font-family="Times,serif" font-size="14.00">LOOP</text>
<text text-anchor="middle" x="224.798" y="-500.971" font-family="Times,serif" font-size="14.00">dtypes.int</text>
</g>
<!-- 3&#45;&gt;9 -->
<g id="edge13" class="edge"><title>3&#45;&gt;9</title>
<path fill="none" stroke="black" d="M115.522,-537.564C132.303,-533.629 151.518,-529.122 169.058,-525.009"/>
<polygon fill="black" stroke="black" points="170.224,-528.33 179.16,-522.639 168.625,-521.515 170.224,-528.33"/>
</g>
<!-- 4 -->
<g id="node5" class="node"><title>4</title>
<ellipse fill="#e0e0e0" stroke="black" cx="69.2965" cy="-476.171" rx="69.0935" ry="26.7407"/>
<text text-anchor="middle" x="69.2965" y="-479.971" font-family="Times,serif" font-size="14.00">CONST 16384</text>
<text text-anchor="middle" x="69.2965" y="-464.971" font-family="Times,serif" font-size="14.00">dtypes.int</text>
</g>
<!-- 4&#45;&gt;9 -->
<g id="edge14" class="edge"><title>4&#45;&gt;9</title>
<path fill="none" stroke="black" d="M129.205,-489.986C142.41,-493.083 156.361,-496.355 169.375,-499.407"/>
<polygon fill="black" stroke="black" points="168.58,-502.816 179.115,-501.692 170.178,-496.001 168.58,-502.816"/>
</g>
<!-- 5 -->
<g id="node6" class="node"><title>5</title>
<ellipse fill="#e0e0e0" stroke="black" cx="224.798" cy="-584.171" rx="50.41" ry="26.7407"/>
<text text-anchor="middle" x="224.798" y="-587.971" font-family="Times,serif" font-size="14.00">CONST 4</text>
<text text-anchor="middle" x="224.798" y="-572.971" font-family="Times,serif" font-size="14.00">dtypes.int</text>
</g>
<!-- 10 -->
<g id="node11" class="node"><title>10</title>
<ellipse fill="#ffffc0" stroke="black" cx="410.704" cy="-548.171" rx="99.9045" ry="26.7407"/>
<text text-anchor="middle" x="410.704" y="-551.971" font-family="Times,serif" font-size="14.00">ALU BinaryOps.MUL</text>
<text text-anchor="middle" x="410.704" y="-536.971" font-family="Times,serif" font-size="14.00">dtypes.int</text>
</g>
<!-- 5&#45;&gt;10 -->
<g id="edge15" class="edge"><title>5&#45;&gt;10</title>
<path fill="none" stroke="black" d="M272.205,-575.086C286.656,-572.258 303.116,-569.036 319.501,-565.828"/>
<polygon fill="black" stroke="black" points="320.534,-569.192 329.675,-563.837 319.189,-562.323 320.534,-569.192"/>
</g>
<!-- 6 -->
<g id="node7" class="node"><title>6</title>
<ellipse fill="#e0e0e0" stroke="black" cx="410.704" cy="-457.171" rx="50.41" ry="26.7407"/>
<text text-anchor="middle" x="410.704" y="-460.971" font-family="Times,serif" font-size="14.00">CONST 1</text>
<text text-anchor="middle" x="410.704" y="-445.971" font-family="Times,serif" font-size="14.00">dtypes.int</text>
</g>
<!-- 12 -->
<g id="node13" class="node"><title>12</title>
<ellipse fill="#ffffc0" stroke="black" cx="658.836" cy="-457.171" rx="98.9899" ry="26.7407"/>
<text text-anchor="middle" x="658.836" y="-460.971" font-family="Times,serif" font-size="14.00">ALU BinaryOps.ADD</text>
<text text-anchor="middle" x="658.836" y="-445.971" font-family="Times,serif" font-size="14.00">dtypes.int</text>
</g>
<!-- 6&#45;&gt;12 -->
<g id="edge16" class="edge"><title>6&#45;&gt;12</title>
<path fill="none" stroke="black" d="M460.921,-457.171C486.318,-457.171 518.374,-457.171 549.204,-457.171"/>
<polygon fill="black" stroke="black" points="549.602,-460.671 559.602,-457.171 549.602,-453.671 549.602,-460.671"/>
</g>
<!-- 7 -->
<g id="node8" class="node"><title>7</title>
<ellipse fill="#e0e0e0" stroke="black" cx="410.704" cy="-241.171" rx="50.41" ry="26.7407"/>
<text text-anchor="middle" x="410.704" y="-244.971" font-family="Times,serif" font-size="14.00">CONST 2</text>
<text text-anchor="middle" x="410.704" y="-229.971" font-family="Times,serif" font-size="14.00">dtypes.int</text>
</g>
<!-- 14 -->
<g id="node15" class="node"><title>14</title>
<ellipse fill="#ffffc0" stroke="black" cx="658.836" cy="-241.171" rx="98.9899" ry="26.7407"/>
<text text-anchor="middle" x="658.836" y="-244.971" font-family="Times,serif" font-size="14.00">ALU BinaryOps.ADD</text>
<text text-anchor="middle" x="658.836" y="-229.971" font-family="Times,serif" font-size="14.00">dtypes.int</text>
</g>
<!-- 7&#45;&gt;14 -->
<g id="edge17" class="edge"><title>7&#45;&gt;14</title>
<path fill="none" stroke="black" d="M460.921,-241.171C486.318,-241.171 518.374,-241.171 549.204,-241.171"/>
<polygon fill="black" stroke="black" points="549.602,-244.671 559.602,-241.171 549.602,-237.671 549.602,-244.671"/>
</g>
<!-- 8 -->
<g id="node9" class="node"><title>8</title>
<ellipse fill="#e0e0e0" stroke="black" cx="410.704" cy="-90.1707" rx="50.41" ry="26.7407"/>
<text text-anchor="middle" x="410.704" y="-93.9707" font-family="Times,serif" font-size="14.00">CONST 3</text>
<text text-anchor="middle" x="410.704" y="-78.9707" font-family="Times,serif" font-size="14.00">dtypes.int</text>
</g>
<!-- 16 -->
<g id="node17" class="node"><title>16</title>
<ellipse fill="#ffffc0" stroke="black" cx="658.836" cy="-90.1707" rx="98.9899" ry="26.7407"/>
<text text-anchor="middle" x="658.836" y="-93.9707" font-family="Times,serif" font-size="14.00">ALU BinaryOps.ADD</text>
<text text-anchor="middle" x="658.836" y="-78.9707" font-family="Times,serif" font-size="14.00">dtypes.int</text>
</g>
<!-- 8&#45;&gt;16 -->
<g id="edge18" class="edge"><title>8&#45;&gt;16</title>
<path fill="none" stroke="black" d="M460.921,-90.1707C486.318,-90.1707 518.374,-90.1707 549.204,-90.1707"/>
<polygon fill="black" stroke="black" points="549.602,-93.6708 559.602,-90.1707 549.602,-86.6708 549.602,-93.6708"/>
</g>
<!-- 9&#45;&gt;10 -->
<g id="edge19" class="edge"><title>9&#45;&gt;10</title>
<path fill="none" stroke="black" d="M271.731,-521.162C286.268,-524.008 302.873,-527.258 319.406,-530.495"/>
<polygon fill="black" stroke="black" points="319.186,-534.018 329.672,-532.504 320.531,-527.148 319.186,-534.018"/>
</g>
<!-- 10&#45;&gt;11 -->
<g id="edge20" class="edge"><title>10&#45;&gt;11</title>
<path fill="none" stroke="black" d="M509.871,-551.217C596.763,-553.914 721.185,-557.775 796.741,-560.12"/>
<polygon fill="black" stroke="black" points="796.965,-563.628 807.069,-560.44 797.182,-556.632 796.965,-563.628"/>
</g>
<!-- 10&#45;&gt;12 -->
<g id="edge21" class="edge"><title>10&#45;&gt;12</title>
<path fill="none" stroke="black" d="M470.346,-526.49C506.11,-513.267 551.983,-496.307 589.402,-482.472"/>
<polygon fill="black" stroke="black" points="591.052,-485.594 599.217,-478.843 588.624,-479.028 591.052,-485.594"/>
</g>
<!-- 10&#45;&gt;14 -->
<g id="edge22" class="edge"><title>10&#45;&gt;14</title>
<path fill="none" stroke="black" d="M470.332,-526.572C485.525,-518.315 500.407,-507.363 510.406,-493.171 566.461,-413.611 482.84,-350.868 546.406,-277.171 552.133,-270.532 559.092,-265.108 566.706,-260.678"/>
<polygon fill="black" stroke="black" points="568.633,-263.622 575.91,-255.922 565.42,-257.403 568.633,-263.622"/>
</g>
<!-- 10&#45;&gt;16 -->
<g id="edge23" class="edge"><title>10&#45;&gt;16</title>
<path fill="none" stroke="black" d="M470.964,-526.69C486.074,-518.454 500.753,-507.482 510.406,-493.171 582.537,-386.226 490.647,-321.493 546.406,-205.171 562.238,-172.144 591.285,-142.654 615.753,-121.807"/>
<polygon fill="black" stroke="black" points="618.066,-124.436 623.514,-115.349 613.589,-119.055 618.066,-124.436"/>
</g>
<!-- 10&#45;&gt;18 -->
<g id="edge24" class="edge"><title>10&#45;&gt;18</title>
<path fill="none" stroke="black" d="M492.618,-563.595C581.128,-580.468 721.034,-607.139 801.114,-622.405"/>
<polygon fill="black" stroke="black" points="800.573,-625.865 811.052,-624.299 801.884,-618.988 800.573,-625.865"/>
</g>
<!-- 10&#45;&gt;26 -->
<g id="edge25" class="edge"><title>10&#45;&gt;26</title>
<path fill="none" stroke="black" d="M457.189,-571.948C482.857,-584.636 515.827,-599.74 546.406,-610.171 705.739,-664.518 752.452,-681.705 920.403,-670.171 1037.16,-662.152 1069.04,-667.406 1181.26,-634.171 1193.39,-630.58 1206.02,-625.343 1217.45,-619.97"/>
<polygon fill="black" stroke="black" points="1219.26,-622.978 1226.73,-615.458 1216.2,-616.683 1219.26,-622.978"/>
</g>
<!-- 22 -->
<g id="node23" class="node"><title>22</title>
<ellipse fill="#ffffc0" stroke="black" cx="1068.83" cy="-598.171" rx="98.9899" ry="26.7407"/>
<text text-anchor="middle" x="1068.83" y="-601.971" font-family="Times,serif" font-size="14.00">ALU BinaryOps.ADD</text>
<text text-anchor="middle" x="1068.83" y="-586.971" font-family="Times,serif" font-size="14.00">dtypes.float</text>
</g>
<!-- 11&#45;&gt;22 -->
<g id="edge26" class="edge"><title>11&#45;&gt;22</title>
<path fill="none" stroke="black" d="M917.112,-571.442C934.9,-574.596 955.349,-578.223 975.329,-581.766"/>
<polygon fill="black" stroke="black" points="974.943,-585.252 985.401,-583.552 976.166,-578.36 974.943,-585.252"/>
</g>
<!-- 12&#45;&gt;13 -->
<g id="edge27" class="edge"><title>12&#45;&gt;13</title>
<path fill="none" stroke="black" d="M725.654,-437.215C740.75,-432.277 756.653,-426.784 771.266,-421.171 785.27,-415.792 800.215,-409.391 813.884,-403.266"/>
<polygon fill="black" stroke="black" points="815.45,-406.399 823.115,-399.085 812.562,-400.023 815.45,-406.399"/>
</g>
<!-- 12&#45;&gt;19 -->
<g id="edge28" class="edge"><title>12&#45;&gt;19</title>
<path fill="none" stroke="black" d="M757.471,-454.766C770.802,-454.438 784.222,-454.107 796.81,-453.797"/>
<polygon fill="black" stroke="black" points="797.257,-457.287 807.167,-453.542 797.084,-450.289 797.257,-457.287"/>
</g>
<!-- 12&#45;&gt;27 -->
<g id="edge29" class="edge"><title>12&#45;&gt;27</title>
<path fill="none" stroke="black" d="M731.726,-475.4C755.597,-480.617 782.422,-485.587 807.266,-488.171 972.787,-505.384 1020.18,-511.957 1181.26,-470.171 1193.74,-466.935 1206.66,-461.699 1218.25,-456.211"/>
<polygon fill="black" stroke="black" points="1219.81,-459.345 1227.24,-451.789 1216.72,-453.064 1219.81,-459.345"/>
</g>
<!-- 23 -->
<g id="node24" class="node"><title>23</title>
<ellipse fill="#ffffc0" stroke="black" cx="1068.83" cy="-434.171" rx="98.9899" ry="26.7407"/>
<text text-anchor="middle" x="1068.83" y="-437.971" font-family="Times,serif" font-size="14.00">ALU BinaryOps.ADD</text>
<text text-anchor="middle" x="1068.83" y="-422.971" font-family="Times,serif" font-size="14.00">dtypes.float</text>
</g>
<!-- 13&#45;&gt;23 -->
<g id="edge30" class="edge"><title>13&#45;&gt;23</title>
<path fill="none" stroke="black" d="M913.458,-393.105C935.618,-399 962.443,-406.136 987.473,-412.794"/>
<polygon fill="black" stroke="black" points="986.767,-416.228 997.331,-415.416 988.566,-409.463 986.767,-416.228"/>
</g>
<!-- 14&#45;&gt;15 -->
<g id="edge31" class="edge"><title>14&#45;&gt;15</title>
<path fill="none" stroke="black" d="M757.471,-238.766C770.802,-238.438 784.222,-238.107 796.81,-237.797"/>
<polygon fill="black" stroke="black" points="797.257,-241.287 807.167,-237.542 797.084,-234.289 797.257,-241.287"/>
</g>
<!-- 14&#45;&gt;20 -->
<g id="edge32" class="edge"><title>14&#45;&gt;20</title>
<path fill="none" stroke="black" d="M723.527,-261.578C739.153,-266.632 755.825,-272.063 771.266,-277.171 783.085,-281.08 795.742,-285.327 807.759,-289.387"/>
<polygon fill="black" stroke="black" points="806.637,-292.702 817.232,-292.593 808.882,-286.071 806.637,-292.702"/>
</g>
<!-- 14&#45;&gt;28 -->
<g id="edge33" class="edge"><title>14&#45;&gt;28</title>
<path fill="none" stroke="black" d="M721.103,-220.122C747.303,-212.174 778.443,-204.104 807.266,-200.171 883.261,-189.8 1139,-198.98 1181.26,-209.171 1193.79,-212.191 1206.73,-217.359 1218.32,-222.851"/>
<polygon fill="black" stroke="black" points="1216.79,-225.997 1227.31,-227.29 1219.89,-219.722 1216.79,-225.997"/>
</g>
<!-- 24 -->
<g id="node25" class="node"><title>24</title>
<ellipse fill="#ffffc0" stroke="black" cx="1068.83" cy="-245.171" rx="98.9899" ry="26.7407"/>
<text text-anchor="middle" x="1068.83" y="-248.971" font-family="Times,serif" font-size="14.00">ALU BinaryOps.ADD</text>
<text text-anchor="middle" x="1068.83" y="-233.971" font-family="Times,serif" font-size="14.00">dtypes.float</text>
</g>
<!-- 15&#45;&gt;24 -->
<g id="edge34" class="edge"><title>15&#45;&gt;24</title>
<path fill="none" stroke="black" d="M920.305,-238.63C932.963,-239.191 946.833,-239.806 960.842,-240.427"/>
<polygon fill="black" stroke="black" points="960.908,-243.934 971.053,-240.88 961.218,-236.94 960.908,-243.934"/>
</g>
<!-- 16&#45;&gt;17 -->
<g id="edge35" class="edge"><title>16&#45;&gt;17</title>
<path fill="none" stroke="black" d="M742.111,-75.5801C761.584,-72.1266 782.038,-68.4993 800.461,-65.2322"/>
<polygon fill="black" stroke="black" points="801.233,-68.65 810.468,-63.4575 800.01,-61.7576 801.233,-68.65"/>
</g>
<!-- 16&#45;&gt;21 -->
<g id="edge36" class="edge"><title>16&#45;&gt;21</title>
<path fill="none" stroke="black" d="M742.111,-104.761C761.584,-108.215 782.038,-111.842 800.461,-115.109"/>
<polygon fill="black" stroke="black" points="800.01,-118.584 810.468,-116.884 801.233,-111.691 800.01,-118.584"/>
</g>
<!-- 16&#45;&gt;29 -->
<g id="edge37" class="edge"><title>16&#45;&gt;29</title>
<path fill="none" stroke="black" d="M698.061,-65.4725C726.806,-48.4363 767.857,-27.2797 807.266,-18.1707 969.966,19.4354 1021.15,-6.74957 1181.26,-54.1707 1193.39,-57.7613 1206.02,-62.998 1217.45,-68.3711"/>
<polygon fill="black" stroke="black" points="1216.2,-71.6587 1226.73,-72.8834 1219.26,-65.3632 1216.2,-71.6587"/>
</g>
<!-- 25 -->
<g id="node26" class="node"><title>25</title>
<ellipse fill="#ffffc0" stroke="black" cx="1068.83" cy="-90.1707" rx="98.9899" ry="26.7407"/>
<text text-anchor="middle" x="1068.83" y="-93.9707" font-family="Times,serif" font-size="14.00">ALU BinaryOps.ADD</text>
<text text-anchor="middle" x="1068.83" y="-78.9707" font-family="Times,serif" font-size="14.00">dtypes.float</text>
</g>
<!-- 17&#45;&gt;25 -->
<g id="edge38" class="edge"><title>17&#45;&gt;25</title>
<path fill="none" stroke="black" d="M917.112,-63.4416C934.9,-66.5961 955.349,-70.2226 975.329,-73.7659"/>
<polygon fill="black" stroke="black" points="974.943,-77.2521 985.401,-75.5521 976.166,-70.3596 974.943,-77.2521"/>
</g>
<!-- 18&#45;&gt;22 -->
<g id="edge39" class="edge"><title>18&#45;&gt;22</title>
<path fill="none" stroke="black" d="M917.112,-624.9C934.9,-621.745 955.349,-618.119 975.329,-614.576"/>
<polygon fill="black" stroke="black" points="976.166,-617.982 985.401,-612.789 974.943,-611.089 976.166,-617.982"/>
</g>
<!-- 19&#45;&gt;23 -->
<g id="edge40" class="edge"><title>19&#45;&gt;23</title>
<path fill="none" stroke="black" d="M919.502,-447.323C933.373,-446.093 948.74,-444.731 964.173,-443.362"/>
<polygon fill="black" stroke="black" points="964.657,-446.833 974.309,-442.464 964.039,-439.861 964.657,-446.833"/>
</g>
<!-- 20&#45;&gt;24 -->
<g id="edge41" class="edge"><title>20&#45;&gt;24</title>
<path fill="none" stroke="black" d="M911.662,-293.638C935.751,-286.162 965.697,-276.868 992.903,-268.425"/>
<polygon fill="black" stroke="black" points="994.274,-271.664 1002.79,-265.358 992.199,-264.979 994.274,-271.664"/>
</g>
<!-- 21&#45;&gt;25 -->
<g id="edge42" class="edge"><title>21&#45;&gt;25</title>
<path fill="none" stroke="black" d="M917.112,-116.9C934.9,-113.745 955.349,-110.119 975.329,-106.576"/>
<polygon fill="black" stroke="black" points="976.166,-109.982 985.401,-104.789 974.943,-103.089 976.166,-109.982"/>
</g>
<!-- 22&#45;&gt;26 -->
<g id="edge43" class="edge"><title>22&#45;&gt;26</title>
<path fill="none" stroke="black" d="M1168.04,-598.171C1181.41,-598.171 1194.67,-598.171 1206.73,-598.171"/>
<polygon fill="black" stroke="black" points="1207,-601.671 1217,-598.171 1207,-594.671 1207,-601.671"/>
</g>
<!-- 23&#45;&gt;27 -->
<g id="edge44" class="edge"><title>23&#45;&gt;27</title>
<path fill="none" stroke="black" d="M1168.04,-434.171C1181.41,-434.171 1194.67,-434.171 1206.73,-434.171"/>
<polygon fill="black" stroke="black" points="1207,-437.671 1217,-434.171 1207,-430.671 1207,-437.671"/>
</g>
<!-- 24&#45;&gt;28 -->
<g id="edge45" class="edge"><title>24&#45;&gt;28</title>
<path fill="none" stroke="black" d="M1168.04,-245.171C1181.41,-245.171 1194.67,-245.171 1206.73,-245.171"/>
<polygon fill="black" stroke="black" points="1207,-248.671 1217,-245.171 1207,-241.671 1207,-248.671"/>
</g>
<!-- 25&#45;&gt;29 -->
<g id="edge46" class="edge"><title>25&#45;&gt;29</title>
<path fill="none" stroke="black" d="M1168.04,-90.1707C1181.41,-90.1707 1194.67,-90.1707 1206.73,-90.1707"/>
<polygon fill="black" stroke="black" points="1207,-93.6708 1217,-90.1707 1207,-86.6708 1207,-93.6708"/>
</g>
</g>
</svg>
