<?xml version="1.0" encoding="UTF-8" standalone="no"?>
<!DOCTYPE svg PUBLIC "-//W3C//DTD SVG 1.1//EN"
 "http://www.w3.org/Graphics/SVG/1.1/DTD/svg11.dtd">
<!-- Generated by graphviz version 2.38.0 (20140413.2041)
 -->
<!-- Title: %3 Pages: 1 -->
<svg width="386pt" height="366pt"
 viewBox="0.00 0.00 385.61 366.43" xmlns="http://www.w3.org/2000/svg" xmlns:xlink="http://www.w3.org/1999/xlink">
<g id="graph0" class="graph" transform="scale(1 1) rotate(0) translate(4 362.434)">
<title>%3</title>
<polygon fill="white" stroke="none" points="-4,4 -4,-362.434 381.605,-362.434 381.605,4 -4,4"/>
<!-- 1 -->
<g id="node1" class="node"><title>1</title>
<ellipse fill="#80ff80" fill-opacity="0.501961" stroke="black" stroke-dasharray="5,2" cx="285.803" cy="-220.61" rx="86.0347" ry="26.7407"/>
<text text-anchor="middle" x="285.803" y="-224.41" font-family="Times,serif" font-size="14.00">(1024, 1024, 1024)</text>
<text text-anchor="middle" x="285.803" y="-209.41" font-family="Times,serif" font-size="14.00">(1024, 0, 1)</text>
</g>
<!-- 0 -->
<g id="node3" class="node"><title>0</title>
<ellipse fill="#c0c0c0" fill-opacity="0.501961" stroke="black" stroke-dasharray="5,2" cx="188.803" cy="-130.87" rx="86.0347" ry="26.7407"/>
<text text-anchor="middle" x="188.803" y="-134.67" font-family="Times,serif" font-size="14.00">(1024, 1024, 1024)</text>
<text text-anchor="middle" x="188.803" y="-119.67" font-family="Times,serif" font-size="14.00">BinaryOps.MUL</text>
</g>
<!-- 1&#45;&gt;0 -->
<g id="edge1" class="edge"><title>1&#45;&gt;0</title>
<path fill="none" stroke="#a0a0a0" d="M258.525,-194.936C247.78,-185.217 235.304,-173.932 223.901,-163.618"/>
<polygon fill="#a0a0a0" stroke="#a0a0a0" points="225.976,-160.775 216.212,-156.663 221.28,-165.967 225.976,-160.775"/>
</g>
<!-- 2 -->
<g id="node2" class="node"><title>2</title>
<ellipse fill="#ffffa0" stroke="black" stroke-width="2" cx="287.803" cy="-320.957" rx="89.6056" ry="37.4533"/>
<text text-anchor="middle" x="287.803" y="-332.257" font-family="Times,serif" font-size="14.00">(1024, 1024)</text>
<text text-anchor="middle" x="287.803" y="-317.257" font-family="Times,serif" font-size="14.00">LoadOps.CUSTOM</text>
<text text-anchor="middle" x="287.803" y="-302.257" font-family="Times,serif" font-size="14.00">K:0 b:0</text>
</g>
<!-- 2&#45;&gt;1 -->
<g id="edge2" class="edge"><title>2&#45;&gt;1</title>
<path fill="none" stroke="#000000" stroke-opacity="0.376471" d="M287.058,-283.336C286.888,-274.965 286.707,-266.074 286.537,-257.725"/>
<polygon fill="#000000" fill-opacity="0.376471" stroke="#000000" stroke-opacity="0.376471" points="290.032,-257.445 286.329,-247.518 283.034,-257.587 290.032,-257.445"/>
</g>
<!-- 5 -->
<g id="node6" class="node"><title>5</title>
<polygon fill="#ffa0a0" stroke="black" stroke-width="2" points="256.303,-68 121.303,-68 121.303,-0 256.303,-0 256.303,-68"/>
<text text-anchor="middle" x="188.803" y="-52.8" font-family="Times,serif" font-size="14.00">{(1024, 1024, 1024)}</text>
<text text-anchor="middle" x="188.803" y="-37.8" font-family="Times,serif" font-size="14.00">(1024, 1024, 1)</text>
<text text-anchor="middle" x="188.803" y="-22.8" font-family="Times,serif" font-size="14.00">ReduceOps.SUM</text>
<text text-anchor="middle" x="188.803" y="-7.8" font-family="Times,serif" font-size="14.00">K:1 b:2</text>
</g>
<!-- 0&#45;&gt;5 -->
<g id="edge3" class="edge"><title>0&#45;&gt;5</title>
<path fill="none" stroke="#a0a0a0" d="M188.803,-103.946C188.803,-95.9811 188.803,-86.9892 188.803,-78.1933"/>
<polygon fill="#a0a0a0" stroke="#a0a0a0" points="192.303,-78.0311 188.803,-68.0311 185.303,-78.0312 192.303,-78.0311"/>
</g>
<!-- 3 -->
<g id="node4" class="node"><title>3</title>
<ellipse fill="#80ff80" fill-opacity="0.501961" stroke="black" stroke-dasharray="5,2" cx="91.8026" cy="-220.61" rx="86.0347" ry="26.7407"/>
<text text-anchor="middle" x="91.8026" y="-224.41" font-family="Times,serif" font-size="14.00">(1024, 1024, 1024)</text>
<text text-anchor="middle" x="91.8026" y="-209.41" font-family="Times,serif" font-size="14.00">(0, 1, 1024)</text>
</g>
<!-- 3&#45;&gt;0 -->
<g id="edge4" class="edge"><title>3&#45;&gt;0</title>
<path fill="none" stroke="#a0a0a0" d="M119.081,-194.936C129.825,-185.217 142.301,-173.932 153.704,-163.618"/>
<polygon fill="#a0a0a0" stroke="#a0a0a0" points="156.325,-165.967 161.393,-156.663 151.629,-160.775 156.325,-165.967"/>
</g>
<!-- 4 -->
<g id="node5" class="node"><title>4</title>
<ellipse fill="#ffffa0" stroke="black" stroke-width="2" cx="89.8026" cy="-320.957" rx="89.6056" ry="37.4533"/>
<text text-anchor="middle" x="89.8026" y="-332.257" font-family="Times,serif" font-size="14.00">(1024, 1024)</text>
<text text-anchor="middle" x="89.8026" y="-317.257" font-family="Times,serif" font-size="14.00">LoadOps.CUSTOM</text>
<text text-anchor="middle" x="89.8026" y="-302.257" font-family="Times,serif" font-size="14.00">K:0 b:1</text>
</g>
<!-- 4&#45;&gt;3 -->
<g id="edge5" class="edge"><title>4&#45;&gt;3</title>
<path fill="none" stroke="#000000" stroke-opacity="0.376471" d="M90.5473,-283.336C90.7175,-274.965 90.8983,-266.074 91.0681,-257.725"/>
<polygon fill="#000000" fill-opacity="0.376471" stroke="#000000" stroke-opacity="0.376471" points="94.5716,-257.587 91.2757,-247.518 87.573,-257.445 94.5716,-257.587"/>
</g>
</g>
</svg>
